<svg xmlns="http://www.w3.org/2000/svg" viewBox="0 0 32.9 74.8"><title id="logo-title">&amp;</title><path fill="none" d="M0 0h32.9v74.8H0z"/><path d="M20.4 4.6a9 9 0 0 0-3.8 2l-.4.5C16 7 14.5 8.9 14 9.9a21.3 21.3 0 0 0-2.7 10.5 30.6 30.6 0 0 0 .6 7l.1 1.3.2 1c0 .4-.8 1.8-2.7 4.5-2 2.6-2.9 4-4.2 6-5.5 8.2-6.8 13.3-4 16 2.7 2.7 8 2 14-1.6l1.4-1 5.3-3.4c.8-.7.9-.7 1.3-.3a23.5 23.5 0 0 0 7.4 4.8c1 .5 2.2-.6 1.2-1.1l-.7-.4-1.3-.7c-1.4-.9-3.6-2.4-4.8-3.5-.6-.6-.6-.6-.4-.8l2.3-1.7 3.8-2.6 1.5-1.1c.5-.3.7-.8.4-1.2-.3-.8-1-.8-1.9-.2a314.3 314.3 0 0 0-7 5.1c-.8.6-.8.6-1.4-.1a41.2 41.2 0 0 1-4.2-5.3 33.7 33.7 0 0 1-3.8-8.5c-.2 0-.3-.6-.3-.7v-.7c-.1-.6-.1-.6.1-1a13.8 13.8 0 0 0 1.2-1.9 121.9 121.9 0 0 0 5.3-9.8l.4-1 .4-1 .3-.7a31.6 31.6 0 0 0 1.8-6.6V6.4c-.4-1.5-1.6-2.2-3.3-1.8zm1 1.2c.7.3.7 2-.1 5.3l-.8 2.8a81.6 81.6 0 0 1-2 5.3 111.4 111.4 0 0 1-4.7 8.8c-.2 0-.3-.5-.4-1.5l-.1-.5a27 27 0 0 1 0-9l.2-1.2c.7-3.3 2.4-6.7 4.5-8.5 1.4-1.2 2.7-1.7 3.4-1.5zm-8.3 27 .3 1 .4 1.2.1.1c0 .2 0 .5.5 1.7.4 1 .6 1.6.8 1.7l.1.3.1.4.8 1.5a15.9 15.9 0 0 0 2 3.2 28 28 0 0 0 3.2 4.3l-6 4.2-1.5.9c-4 2.5-8.4 3.5-10.3 2.3-1.9-1.2-2-3.5-.8-7A80.2 80.2 0 0 0 4 46.1c1-1.8 2.9-4.8 6-9.3l2.6-4c.4-.5.4-.5.6 0zm1.1 1.4.2.3c.1.2.2.6 0 .6l-.2-.3v-.2c-.1 0-.2-.2-.1-.5 0-.1 0-.1.1 0z"/></svg>
