<svg xmlns="http://www.w3.org/2000/svg" viewBox="0 0 147.5 74.8"><title id="logo-title">alive</title><path fill="none" d="M0 0h147.5v74.8H0z"/><path d="M50.2 3.2a42 42 0 0 0-18.6 13.6c-7.8 9.5-11 19-9.4 26.8.1.5-6.6 4.8-11 7.2-6.3 3.2-8.6 3.3-8 .2 1.1-4 8.2-10.8 9.2-9 .4.7 0 1.6-1 3.8-1 2.4-1.2 2.6-.6 3.2.3.5 1.3.6 1.8.3.4-.6 2.4-4.8 3.5-7.6 2.1-5.9 1.2-9.6-2.5-9.6-2.6 0-5 2-4 3.4.6.8 1.3.8 1.8 0 .7-1.3 2.3-1.4 3-.4.4 1.1-.2 6-.8 5.3-1.3-1.7-5 0-9 4.1-4.7 5-6 9.7-2.9 10.9 3.2 1 10.2-2 19.8-8.6 1.4-1 1.3-1 1.8-.3 4.7 9.5 18 8.2 30.3-2.8 1.3-1.1 1.3-1.1.8 0-2 4.5-.7 7.4 2.8 6.3 2.8-.9 7-3.7 10.6-7 1-1 1-1 .6.1-1.5 5 1.2 6.7 4.7 3.2a29 29 0 0 0 5.2-7.7c.1-.3.1-.3.6.4l1.3 1.4c.8.9.8.9.6 1.7a8.8 8.8 0 0 0 3.4 9.9c8.4 5.7 32.4 5 55.4-1.6 4.2-1.3 7.1-2.2 7.5-2.7 1-.8.2-2.4-1-2-16.8 7-44.3 10.1-56 6.4-4.7-1.6-6.9-4.1-6.7-8 0-1.8 0-1.9.9-1.8 5.3 1 10.5-3.4 9.3-7.6-1-3.7-7-1.8-10.8 3.4-.7 1-.7 1-1.3.6-1-1-1.3-2.1-1-4 .2-1.4 0-1.8-.6-2.1-1.2-.9-2 0-2.4 2.5C77 38 71.6 46 70.8 45c-.4-.4.2-2 2.3-5.9 1.4-2.8 1.4-3 .8-3.7-.9-1-1.8-.5-3.1 1.4a25 25 0 0 1-6 6.2 27 27 0 0 1-8 4.6c-1.3 0 .3-4.2 4.2-10.5.8-1.3.7-2.2-.2-2.7-1-.6-2-.2-2.6 1.2a14 14 0 0 1-3 3.9c-12 12-25.2 14.7-29.7 5.9-.5-1-.6-.8 1.8-2.5a85 85 0 0 0 23.7-27c4.4-8 4-13.5-.8-12.6zm1.3 2.2c1.3 1.2-.1 5.7-3.4 11.4a88.2 88.2 0 0 1-21.7 24.1c-2 1.5-2 1.5-2 1-1.4-7.1 4-19.3 12-27.2 6-6 13.4-10.6 15-9.3zm40 29.7.2.7c0 2.4-3.4 4.9-6.3 4.5-.9 0-.9-.1-.5-.7 1.7-2.8 5.6-5.4 6.6-4.5z"/><path d="M59.5 23.3c-.8.3-1 1.8-.1 2.3.9.5 4-.1 4.3-1 .3-1-2.6-2-4.2-1.3z"/></svg>
