<svg xmlns="http://www.w3.org/2000/svg" version="1.2" viewBox="0 0 962 760"><path fill-rule="evenodd" d="m253 0 11 1c4 1 5 2 7 5 1 3 4 6 8 9l9 6 10 2-1 5-1 8 1 7c1 3 2 7 4 8 1 2 3 3 6 4l7 2c2 2 4 2 7 1h4l2 6v11l-2 12 2 10 4 10c3 3 3 4 3 8-1 3-1 4 4 13l9 12 5 4 8 3 8 4 4 2c2 0 3 1 3 5 1 3 1 3 3 3 3 0 3 0 3 2 0 3 1 3 4 5l8 1c2 0 4 1 7 4s5 5 5 9l2-2c2-3 3-3 5-3l2 2-1 4v9h6c6-1 7 0 21 9l6-1c6-2 7-2 19 1l4-5 5-5 1-1 5 4 7 7c0 3 3 6 5 9l4 5c-1 2 0 3 3 4 3 2 4 4 5 7s2 5 6 9c4 3 6 4 10 4l12 2 8 4 9 4 9 5c2 2 2 2 13 1h16l6 2 5 2 7 3 8 2 7-2 5-3 4-4c3-2 4-2 7-1 4 1 5 1 6-1l5-1 5 2 7-3 6-3 5 2 7 2 6 2 8 5 11 2c4 0 5 0 6 2l7 5 8 4c1 1 1 1-3 2l-8 5-6 8-1 12c0 8 0 9 3 15l9 10 14 10a444 444 0 0 1 33 26c1 0 1 1-2 5l-5 5-9 9c-6 8-6 8-6 15l1 12c0 4 0 5-2 6s-2 1-1 3 0 3-1 5c-1 4-1 4 3 7l6 5c2 1 2 2 2 4-1 2-2 4-6 6-5 3-5 3-5 7 0 3 1 4 3 6l3 2 5 3 5 3 2 5v6c-1 1-2 3-1 6 0 3 0 4-3 6l-2 3 4 3c3 3 4 3 3 5v2l5 3 5 7 1 7 1 4 3 1c1 0 2 0 3 2l2 6v4l-1 9v11c1 3 1 3-1 3l-2 2v6c0 3 1 4 3 6 2 1 3 2 3 5l2 6 10 7c5 2 9 4 9 6 1 1 3 3 10 6l7-5 2 4c2 4 2 4-2 10l4 4c4 3 6 4 9 4l8-3 8-4 6-1c2 0 2 1 3 3 0 3 1 4 4 5l7 4c2 3 3 3 8 3l7 1c1 2 4 2 10 2 7 0 9 0 10-2a296 296 0 0 1 42 1l7-7c6-4 6-4 9-3 2 1 2 1 1 8l-1 8c-1 0-3 3-4 7l-3 11c-1 5 0 6 1 9 2 3 2 3 1 5-2 2-2 3 0 7 0 3 2 7 5 13l-2 9-2 12c1 3 0 4-4 8l-4 6-1 7-3 11-3 4-5 1c-3 1-4 1-3 3 0 2 0 3-3 3-3 1-5 2-12 12h-6l-10-2-4-2-1-8-4-14c-2-5-4-7-8-10-3-2-8-4-20-7l-6 3c-5 2-5 3-5 5s0 3-2 3l-3 4 1 4 2 4c1 2 1 2-1 4-1 1-2 2-2 5s0 4-2 4l-4-1-3-2-4-6c-3-4-4-5-6-4-2 0-4-1-5-3-2-2-3-6-6-20l-4-1-6-2-4-10 8-7-3-9c-3-9-4-9-7-10-3-2-4-1-6 0l-2 1-2-10-5-2-6-4-2-2-5-1c-4 0-4 0-4 2s0 2-9 2l-11 2c-1 0-2 0-2-2-1-1 0-2 1-4s2-3 1-5 0-4 1-8l1-7-17-1v-3l2-6 7-6c4-3 6-5 7-8v-9c-1-4-2-6-5-9-4-4-5-5-5-9l-2-8c0-2-3-5-7-8-7-6-7-6-9-4l-6 1c-4-1-4-1-7 4l-4 4-3-2-2-3 6-7c5-5 6-7 6-10l3-8 5-6c2-1 2-2 2-6-1-4-1-4-5-5-4 0-5 0-7 2l-3 7-3 8-3 3-10-7 1-3 2-4-2-1h-2l2-5c0-2 3-5 5-8 3-3 3-4 2-5l-2-1-1-5v-5l-4-2-4-3h-11l-1-2h-3c-1 2-3 2-9 2-5 0-8 0-11-2s-4-2-4-5c0-2 1-2 8-3l10-2 2-4-2-6c-2-2-3-4-3-8 0-3 1-6 4-10l-3-4-4-6c-1-1-2-1-3 1l-7 1c-5 0-6-1-11-5-5-5-6-5-8-3-2 0-4 2-5 3l-9 5c-7 3-8 3-23 3l-17-1-9-2-9-3c-1-2-5-4-9-5l-10-1c-3 1-6 2-9 6s-5 5-6 4l-7-1-12-3-13-4-7-4c-2-2-4-3-8-3h-12c-8 0-8 1-10 4l-4 4h-7c-3 0-4 0-5-5l-7-13c-4-6-5-7-5-11 0-3-1-5-5-9l-5 2-5 3-1-2v-7c1-6 1-6 5-8l6-1 5-1 2-10 3-11 2-5-1-1c-2 0-2-1-2-6l-1-8c-1-1-2-3-1-4s-1-3-6-8c-3-4-7-9-10-16h-7c-6 0-8 0-11-3l-7-3-13 3-5-5c-5-5-6-6-8-16l-4-15c-1-3-3-5-11-9-5-4-10-6-11-5l-5-9-6-13-8-7-11-4c-5 0-6-1-9-5l-11-11-12-12a61 61 0 0 1-9-17l-8-4c-5-2-7-3-9-2l-4 1-3-3-3-4-7-6c-3-4-8-7-11-8l-5-4-8-10-10-10c-1-2-5-3-8-4l-7-3-9-4-11-3c-3 0-5 1-7 3-3 2-5 3-21 6l-6-4-9-5-5-1c-2 0-2-2-5-10-3-9-3-9-6-10H88l-15-6-4 2c-2 2-3 3-3 9l4-1 9 1 7 5 2 5-2 5-9 8c-6 4-9 5-13 5-5 1-7 0-9-1h-7c-2 1-5 0-8-1-5-1-6-1-16 1-6 1-14 3-24 7v-8c1-8 1-9 5-14 4-6 5-7 11-9l7-4c0-2 1-2 9-2 7 0 8 0 8-2l6-5c3-2 5-3 7-2 2 0 3 0 4-2l3-2 8-2 11-3c3-1 6-2 7-4 2-1 3-2 7-1 3 0 4 0 4-2 1-2 2-4 5-5l6-2 2-3 1-4c0-2 2-3 4-5 4-2 4-2 9 0l8 1c2 0 3-1 5-5 2-3 4-8 4-11l1-6v-4c-1-3-1-3 7-9l11-9c2-3 2-3 11-4 7-1 9 0 13 1l9 2 8-1c2 0 4-1 5-3l8-7c6-2 8-3 13-3l6-1 6-5c6-5 7-5 14-5zM33 80l9 1c6 1 7 2 6 3h-8l-8-2-2-1 3-1zm663 481 2 7c0 6 0 6-2 8l-4 1-1-7c0-5 1-7 2-8l3-1zm39 38-3 4c-3 3-4 4-3 9v5l-5-8c-3-7-4-9-2-9l13-1zm60 102h5l-1 9c0 7-1 8-3 8l-4-5c-3-4-3-5-1-6l1-4c0-3 0-3 3-2zm-17 8 2 2 7 5 4 3 1 7c1 5 1 6-1 10-2 5-3 5-7 5-2 0-5-1-9-4l-1 3c-1 2-1 3-3 2l-8-6 4-10c2-6 5-10 7-13z"/></svg>