<svg xmlns="http://www.w3.org/2000/svg" preserveAspectRatio="xMidYMid" version="1.0" viewBox="0 0 19.06 19.06"><path class="blob" fill="currentColor" d="M6.23 1.65c-3.3 1.2-5.4 4.6-5.4 8.75 0 4.97 3.1 7.83 8.4 7.83 9.1 0 12.5-12.35 4.5-16.12-3.1-1.57-4.4-1.66-7.5-.46z"/><path d="M10.76 1.12a4.93 4.93 0 0 0-1.72.2 6.64 6.64 0 0 0-1.37.57 6.68 6.68 0 0 0-1.04.8 6.92 6.92 0 0 0-.84 1.03 8.61 8.61 0 0 0-.85 2.04l-.18.87a7.7 7.7 0 0 0 .02 2.13c.04.21.12.52.18.67a5.12 5.12 0 0 0 .73 1.23 4.65 4.65 0 0 0 1.6 1.22 10.06 10.06 0 0 0 1.86.67 16.16 16.16 0 0 0 3.18.45c.19.01.84.03 1.46.03.73 0 1.11 0 1.11.04a12.9 12.9 0 0 1-6.92 3.96c-.46.09-.64.1-1.31.11-.62 0-.84-.01-1.06-.07-.15-.03-.4-.13-.56-.2a2.1 2.1 0 0 1-.46-.3c-.1-.08-.22-.24-.3-.35a2.43 2.43 0 0 1-.2-.46 7.63 7.63 0 0 1-.15-.74c-.04-.27-.1-.71-.12-.99a7.5 7.5 0 0 0-.1-.76 1.45 1.45 0 0 0-.17-.41.86.86 0 0 0-.2-.21.65.65 0 0 0-.31-.07c-.12 0-.28.03-.36.06-.08.03-.21.1-.3.16-.08.06-.4.36-.73.68-.52.52-.57.56-.51.41l.34-.86.47-1.13a100.83 100.83 0 0 0 1.1-2.82c.05-.15.08-.31.07-.37a.6.6 0 0 0-.11-.2c-.05-.06-.12-.1-.18-.1a.37.37 0 0 0-.2.09 1.7 1.7 0 0 0-.25.5 141.65 141.65 0 0 1-1.3 3.16 162.64 162.64 0 0 1-1 2.55c-.04.14-.08.34-.08.44 0 .11.03.22.07.27.04.05.11.1.16.13s.12.05.17.05a.4.4 0 0 0 .17-.05c.06-.02.37-.34.7-.7.32-.36.73-.8.9-.96.18-.17.4-.36.5-.42a.99.99 0 0 1 .23-.12c.02 0 .06.1.09.2.03.12.08.4.1.62l.08.79a4.35 4.35 0 0 0 .4 1.52c.14.27.25.41.48.64.24.23.39.35.65.47.19.1.5.21.68.26.3.08.44.1 1.23.1.74 0 .95-.02 1.35-.1a10.65 10.65 0 0 0 1.96-.58 16.68 16.68 0 0 0 2.61-1.3 16.02 16.02 0 0 0 1.94-1.47 9.88 9.88 0 0 0 1.18-1.31l.16-.22.53-.06c.28-.02 1.78-.3 2.24-.38.55-.31.53-.76.41-.72-.35 0-.95.1-1.36.16l-1.05.16-.31.03.18-.42a9.02 9.02 0 0 0 .6-2.55 11.02 11.02 0 0 0-.15-1.9 10.73 10.73 0 0 0-.85-2.52 9.88 9.88 0 0 0-.86-1.38l-.5-.56a5.29 5.29 0 0 0-3.92-1.71zm-.19.59a6.8 6.8 0 0 1 1.56.2 6.74 6.74 0 0 1 1.18.51 6.4 6.4 0 0 1 1.78 1.77 11.96 11.96 0 0 1 .69 1.3 11.61 11.61 0 0 1 .48 1.6c.05.23.1.58.13.78a10.16 10.16 0 0 1-.02 1.81c-.04.27-.13.71-.2.99a7.46 7.46 0 0 1-.6 1.42c-.06.11-.08.12-.34.13a36.31 36.31 0 0 1-3.49-.01 11.46 11.46 0 0 1-1.68-.23 14.59 14.59 0 0 1-1.6-.41 9.92 9.92 0 0 1-1.25-.55 6.08 6.08 0 0 1-.9-.66 3.83 3.83 0 0 1-.7-.93 3.68 3.68 0 0 1-.35-1.41 4.14 4.14 0 0 1 0-.86l.1-.83A7.68 7.68 0 0 1 6 4.48a6 6 0 0 1 .43-.71 6.48 6.48 0 0 1 1.24-1.2 6.75 6.75 0 0 1 1.35-.65 6.24 6.24 0 0 1 1.55-.21z"/></svg>
