<svg xmlns="http://www.w3.org/2000/svg" version="1.2" viewBox="43 314 511 215"><path class="blob" fill="currentColor" d="M118 324c-41 15-67 57-67 109 0 61 38 96 104 96 112 0 154-152 55-199-38-20-54-21-92-6z"/><path d="M172 319a60 60 0 0 0-20 2 81 81 0 0 0-17 7 79 79 0 0 0-12 10 76 76 0 0 0-14 19 105 105 0 0 0-9 28 93 93 0 0 0 0 26l3 8a59 59 0 0 0 8 14 59 59 0 0 0 20 15 126 126 0 0 0 51 13 225 225 0 0 0 40 1l-5 6a158 158 0 0 1-78 42l-16 1h-13a38 38 0 0 1-12-6c-1-1-3-3-3-5l-3-5a93 93 0 0 1-3-21l-1-9-2-5-3-3h-8l-3 2-9 8c-6 7-7 7-6 5l4-10 5-14a1398 1398 0 0 0 14-38l-1-2-2-2-2 1-3 6-7 16-9 23a2004 2004 0 0 1-13 35l1 4 2 1 2 1 2-1 8-8a287 287 0 0 1 20-18l1 2 1 8a3158 3158 0 0 0 3 19l3 8 6 8 7 6 9 3 14 1 17-1a130 130 0 0 0 33-11 209 209 0 0 0 45-29 116 116 0 0 0 14-16l2-3h6a312 312 0 0 0 55-11 256 256 0 0 0-12 36l1 4 2 2 2 1 6-2a88 88 0 0 0 14-10l9-9 6-5v18l3 5 3 4 4 2 7 2a32 32 0 0 0 15-4l11-7 7-5 2 2 3 4a31 31 0 0 0 11 9 57 57 0 0 0 17 5h10a136 136 0 0 0 54-12 202 202 0 0 0 43-25 209 209 0 0 0 19-19 159 159 0 0 0 12-17 122 122 0 0 0 10-24l1-11v-10a59 59 0 0 0-5-14 49 49 0 0 0-18-19 90 90 0 0 0-16-7 131 131 0 0 0-17-5 147 147 0 0 0-41 2l-7 3-6 4-4 5-1 5 1 4 3 1 3-1 2-3a18 18 0 0 1 8-8l7-2 18-1a91 91 0 0 1 36 6l8 4 7 5 7 6a40 40 0 0 1 8 20l-1 11a75 75 0 0 1-6 20 113 113 0 0 1-35 40 229 229 0 0 1-33 20 252 252 0 0 1-29 9 155 155 0 0 1-23 3l-13-1h-6l-2-1 2-1 4-2 4-4 3-5 1-8-1-7-4-5-4-2h-6l-7 2a28 28 0 0 0-10 8l-3 4-1-1-2-1-3 1-2 3-5 5a136 136 0 0 1-16 9l-5 2h-6l-4-1-2-3a25 25 0 0 1-2-13l1-10 4-8 6-7 8-9a570 570 0 0 0 60-94l2-9v-5l-2-2h-3l-7 6a227 227 0 0 0-42 55 427 427 0 0 0-30 61q0 2-6 8a198 198 0 0 1-26 22l-3 1 2-6a234 234 0 0 1 20-46l-2-2-3-1-3 1-3 5-2 4-7 3a126 126 0 0 1-39 11l-13 2h-3l2-5a134 134 0 0 0 5-16 121 121 0 0 0 2-14v-11a149 149 0 0 0-4-22 157 157 0 0 0-8-20 128 128 0 0 0-10-17 166 166 0 0 0-16-15 62 62 0 0 0-38-12zm-2 7a90 90 0 0 1 19 2 83 83 0 0 1 14 6 77 77 0 0 1 21 22 113 113 0 0 1 14 34 151 151 0 0 1 2 20 128 128 0 0 1-3 24c-1 3-2 8-4 10l-3 7-4 1-4 1a399 399 0 0 1-58-4 159 159 0 0 1-27-8 85 85 0 0 1-13-7 59 59 0 0 1-10-10 39 39 0 0 1-6-10 56 56 0 0 1-2-12v-11l1-10a97 97 0 0 1 8-22l5-8a81 81 0 0 1 15-15 100 100 0 0 1 16-8 75 75 0 0 1 19-2zm232 16-1 3a490 490 0 0 0-7 15 628 628 0 0 1-53 75l4-9a597 597 0 0 1 46-72 238 238 0 0 1 11-12zm-3 123 3 1 2 3 1 3-1 3-2 3-5 2-5 1-6-2-2-2 1-3a21 21 0 0 1 7-7l3-2h4zm-73-126-3 1-2 2-1 4 1 4 4 4c2 2 3 2 5 2l3-1 1-3c1-2 0-3-1-5l-3-4-2-3-2-1z"/></svg>
