<?xml version="1.0" encoding="UTF-8" standalone="no"?>
<!-- Created with Inkscape (http://www.inkscape.org/) -->

<svg
   width="1.3864462in"
   height="0.41097003in"
   viewBox="0 0 35.215735 10.438639"
   version="1.1"
   id="svg1"
   xml:space="preserve"
   xmlns="http://www.w3.org/2000/svg"
   xmlns:svg="http://www.w3.org/2000/svg"><defs
     id="defs1" /><g
     id="g192"
     transform="translate(-71.263419,-286.29003)"><path
       style="font-weight:bold;font-size:14.1111px;line-height:0.4;font-family:'Book Antiqua';-inkscape-font-specification:'Book Antiqua Bold';text-align:center;text-anchor:middle;stroke:#000000;stroke-width:0"
       d="m 71.263391,287.50271 v -0.58567 q 1.143771,0.0551 2.018824,0.0551 0.923285,0 2.129068,-0.0551 v 0.58567 q -0.73036,0.0276 -0.888834,0.11024 -0.151584,0.0827 -0.151584,0.2825 0,0.23427 0.434081,2.2462 l 0.778591,3.59668 1.763888,-3.65869 q 1.033528,-2.14285 1.48139,-3.1626 h 0.613226 l 2.866317,7.15891 1.157552,-4.27881 q 0.37207,-1.38493 0.37207,-1.90858 0,-0.22049 -0.144694,-0.28939 -0.144694,-0.0758 -0.971516,-0.0965 V 286.917 q 1.274684,0.0551 1.619193,0.0551 0.420302,0 1.48828,-0.0551 v 0.58567 q -0.564995,0.0482 -0.730359,0.17914 -0.158475,0.12403 -0.310059,0.61323 -0.248046,0.75103 -1.233343,4.32015 l -1.081759,4.02387 h -1.309135 l -2.756075,-6.96598 -1.770777,3.72759 q -0.826823,1.75011 -1.46761,3.23839 H 74.18483 q -0.179145,-0.83372 -1.150661,-5.16764 l -0.73036,-3.22461 q -0.110243,-0.48231 -0.241157,-0.57878 -0.130913,-0.10335 -0.799261,-0.16536 z m 16.69492,-0.90951 q 0.440972,0 0.75103,0.31695 0.316948,0.31006 0.316948,0.75792 0,0.44098 -0.316948,0.75792 -0.310058,0.31006 -0.757921,0.31006 -0.440971,0 -0.75792,-0.31006 -0.310058,-0.31694 -0.310058,-0.75792 0,-0.44786 0.310058,-0.75792 0.316949,-0.31695 0.764811,-0.31695 z m -1.922362,9.99077 v -0.57188 q 0.778591,-0.0276 0.895724,-0.0965 0.124023,-0.0689 0.158474,-0.38585 0.05512,-0.43409 0.05512,-1.91548 0,-0.64078 -0.02067,-1.18511 l -0.02067,-0.80615 q 0,-0.39963 -0.08957,-0.4892 -0.08268,-0.0965 -0.461642,-0.11025 l -0.516764,-0.0207 v -0.53054 q 1.660535,-0.12402 2.735404,-0.58567 l 0.172254,0.13781 q -0.09646,1.31602 -0.09646,3.83094 0,1.45383 0.04823,1.757 0.03445,0.21359 0.124023,0.27561 0.09646,0.062 0.909505,0.12402 v 0.57188 q -1.247124,-0.0413 -1.929252,-0.0413 -0.36518,0 -1.963703,0.0413 z m 4.657766,-9.23284 v -0.39964 q 0.978406,-0.13091 1.543401,-0.26871 0.564996,-0.13781 1.219563,-0.39274 l 0.179145,0.15158 q -0.103353,2.4598 -0.103353,6.86952 0,0.88883 0.02756,1.79833 0.01378,0.57878 0.06201,0.67524 0.05512,0.0896 0.165364,0.1447 0.117133,0.0551 0.826823,0.0827 v 0.57188 l -0.72347,-0.0207 q -0.675238,-0.0207 -1.136881,-0.0207 l -2.060165,0.0413 v -0.57188 l 0.509874,-0.0276 q 0.344509,-0.0138 0.440972,-0.12403 0.103352,-0.11713 0.124023,-0.86816 0.03445,-1.04042 0.03445,-2.95589 l -0.0069,-2.94211 q -0.0069,-1.34358 -0.07579,-1.51584 -0.02756,-0.0827 -0.103353,-0.12402 -0.124024,-0.0758 -0.923285,-0.10335 z m 9.908085,2.83186 v -1.192 q 0,-1.10932 -0.0482,-1.28847 -0.0344,-0.13091 -0.1378,-0.17914 -0.0965,-0.0551 -0.930179,-0.0758 v -0.4961 q 1.646759,-0.17914 2.762969,-0.66145 l 0.17914,0.16536 q -0.0689,1.10932 -0.0827,2.10151 l -0.0482,5.40879 q 0,1.35737 0.0482,1.65365 0.0276,0.18603 0.13091,0.26183 0.11024,0.0689 0.84749,0.13091 v 0.57188 q -0.8406,-0.0413 -1.63986,-0.0413 -0.57877,0 -1.08176,0.0413 l -0.11713,-0.0827 q 0.0827,-0.69591 0.11713,-1.1231 -0.46853,0.3514 -1.495169,1.20578 -0.39274,0.1447 -0.73725,0.1447 -1.14377,0 -1.908581,-0.84749 -0.757921,-0.85439 -0.757921,-2.26688 0,-0.68901 0.151585,-1.24712 0.158474,-0.56499 0.365179,-0.84749 0.213596,-0.2825 0.847493,-0.72347 0.861273,-0.59945 1.254014,-0.75103 0.399631,-0.15848 0.868163,-0.15848 0.33762,0 0.689019,0.0758 0.351398,0.0689 0.723468,0.22048 z m 0,1.4745 q -0.32384,-0.46164 -0.737248,-0.68902 -0.413412,-0.22737 -0.916395,-0.22737 -0.709689,0 -1.088649,0.50987 -0.378961,0.50298 -0.378961,1.69499 0,1.22645 0.461643,1.83279 0.468532,0.60633 1.192002,0.60633 0.489203,0 0.902618,-0.2825 0.4203,-0.28249 0.4892,-0.51676 0.0758,-0.23427 0.0758,-1.77767 z m 4.78179,2.86632 q 0.45475,0 0.7717,0.32384 0.32384,0.31695 0.32384,0.77859 0,0.45475 -0.32384,0.77859 -0.31695,0.32384 -0.7717,0.32384 -0.45475,0 -0.77859,-0.32384 -0.32384,-0.32384 -0.32384,-0.77859 0,-0.45475 0.31695,-0.77859 0.32384,-0.32384 0.78548,-0.32384 z"
       id="text388"
       aria-label="Wild." /></g></svg>
