<svg xmlns="http://www.w3.org/2000/svg" id="svg1" version="1.2" viewBox="0 0 232.7 90.8"><g id="Layer 1" transform="translate(-218 -215.1)"><path id="path1" d="M285.4 301q-8.3-5-17.6-7.9l-.7-9.7c15.2-.6 17-4.7 18.3-16.2l6.6-3-6.5-12.7v-9.4a27 27 0 0 0-54 0v51a62 62 0 0 0-12.8 8c-.9.8-1 2.1-.3 3s2 1 3 .3c2.2-1.8 8.8-6.6 12.8-7.7l1.6-.4V242a22.8 22.8 0 0 1 45.6 0v10.4l5 9.7-4.8 2.2-.2 1.1c-1.3 11.5-1.5 13.5-16.6 13.8h-2.2l1.3 17 1.3.4a73 73 0 0 1 17.9 7.8 2 2 0 1 0 2.3-3.4m-10.7-46.6c.5-16.8-9.6-23.3-17-28l-3.1-2-1 2.1c-3.5 6.9-8.7 17.3-10 27.4q-2 14.1 6.7 18.9a32 32 0 0 1-6 6l2.5 3.4q4.5-3.5 7.6-8 1.2.3 2.5.3 5.3 0 9.6-3c3.5-2.4 7.8-7.3 8.1-17M264 268.1a13 13 0 0 1-7.2 2.2q4.7-8.6 5-18.6l-4.1-.1q-.4 9.5-5.1 17.7c-3.2-1.6-6.4-5-5-14.8a84 84 0 0 1 8.6-24c7 4.5 14.7 10 14.2 23.8q-.3 9.5-6.4 13.8" class="s0"/><path id="WILD" d="M328.3 258h-8.7l-11.5-35h8.4l9.9 31h-4.2l10.5-31h7.5l9.9 31h-4l10.2-31h7.8l-11.5 35h-8.7l-8.9-27.2h2.4zm48 0h-8.2v-35h8.2zm34.5 0h-25.7v-35h8.2v28.4h17.5zm20.2 0h-15.9v-35H431q5.8 0 10.1 2.2 4.3 2.1 6.7 6.1 2.5 3.8 2.5 9.2t-2.5 9.2q-2.4 3.9-6.7 6.1T431 258m-7.7-28.4v21.7h7.3q3.5 0 6.1-1.3t4-3.7q1.4-2.5 1.4-5.8 0-3.4-1.4-5.8t-4-3.7q-2.6-1.4-6.1-1.4z" aria-label="WILD" class="s0"/><path id="Project" d="M315.2 298h-4v-28h10.9q3.7 0 6.3 1.2t4 3.4 1.4 5.2-1.4 5.2-4 3.4-6.3 1.1h-8.7l1.8-1.9zm0-26.5v16.6l-1.8-2h8.6q3.9 0 5.8-1.6 2-1.7 2-4.7t-2-4.6q-1.9-1.7-5.8-1.7h-8.6zm27.3 26.5h-3.8v-21.2h3.6v5.8l-.3-1.5q.9-2.2 2.9-3.3 2.1-1.2 5.2-1.2v3.7h-.9q-3.1 0-4.9 1.8t-1.8 5.4zm21.2.2q-3.1 0-5.6-1.4t-4-3.8q-1.4-2.5-1.4-5.6 0-3.2 1.4-5.6 1.5-2.5 4-3.8 2.4-1.4 5.6-1.4t5.7 1.4 3.9 3.8 1.4 5.6-1.4 5.6-3.9 3.8-5.7 1.4m0-3.4q2.1 0 3.7-.9t2.5-2.6 1-3.9q0-2.3-1-4t-2.5-2.6q-1.6-.9-3.7-.9-2 0-3.6.9t-2.6 2.6q-.9 1.7-.9 4t.9 3.9q1 1.7 2.6 2.6t3.6.9m13.2 11.1q-1.3 0-2.5-.3t-2.1-.9l1.3-3q1.2 1 3.1 1 1.5 0 2.3-.9.9-1 .9-2.8v-22.2h3.8v22.1q0 3.3-1.8 5.2-1.7 1.8-5 1.8m4.9-33.2q-1.1 0-1.9-.7-.7-.8-.7-1.8 0-1.1.7-1.8.8-.7 1.9-.7t1.8.7.8 1.7q0 1.1-.8 1.9-.7.7-1.8.7m19.3 25.5q-3.4 0-6-1.4-2.5-1.4-4-3.8-1.4-2.5-1.4-5.6 0-3.2 1.4-5.6 1.4-2.5 3.8-3.8 2.4-1.4 5.4-1.4t5.4 1.3 3.8 3.9q1.3 2.4 1.3 5.7v1.2h-18.1v-2.8h16l-1.5.9q0-2-.9-3.6t-2.4-2.5-3.6-.9q-2 0-3.6.9-1.5.9-2.4 2.5t-.8 3.7v.7q0 2.1.9 3.8t2.7 2.5 4.1.9q1.9 0 3.4-.6 1.6-.6 2.7-1.9l2.2 2.5q-1.5 1.6-3.6 2.5t-4.8.9m23.8 0q-3.2 0-5.8-1.4t-4-3.8-1.4-5.6 1.4-5.6q1.5-2.5 4-3.8 2.6-1.4 5.8-1.4 2.9 0 5.1 1.1 2.3 1.1 3.5 3.4l-2.9 1.8q-1-1.5-2.5-2.2t-3.3-.8q-2 0-3.7.9-1.6.9-2.6 2.6t-.9 4q0 2.2.9 3.9t2.6 2.6 3.7.9q1.8 0 3.3-.7t2.5-2.3l2.9 1.8q-1.2 2.3-3.5 3.4t-5.1 1.2m21.1 0q-3.3 0-5-1.7t-1.8-4.9v-19.5h3.9v19.3q0 1.7.8 2.6t2.5 1q1.8 0 3-1l1.2 2.7q-.9.8-2.1 1.1t-2.5.4m3.2-18.3h-13.6v-3.1h13.6z" aria-label="Project" class="s0"/></g></svg>