<svg xmlns="http://www.w3.org/2000/svg" viewBox="0 0 1253 976"><path d="M325 2q-4 1-11 7l-9 7-6 2-11 5-19 7c-12 4-12 4-20 3-19-5-20-5-24-4q-4 1-5 4l-9 8-15 12q-11 8-8 14v6l-1 8c0 7-2 7-24 11q-11 2-11 9t-14 16c-5 4-7 4-14 5a319 319 0 0 0-109 39l-7 11-8 24q1 8 10 3l16-6 18-5q13-5 20-2c6 2 25 2 32 1 9-2 23-12 27-18 2-5 2-5 1-9q-5-12-20-12h-6l2-4q3-6 7-1 8 9 26 6 14-2 20 5c3 4 3 4 3 12q0 8 11 12l14 5c7 4 10 4 17 0 6-3 25-8 29-8q2-1 29 12l14 5q3-1 8 7c8 13 16 21 38 41l9 8h10c15 1 16 2 20 9l6 12q9 17 28 33c8 6 12 8 20 8 5 0 5 0 12 6 15 13 15 13 15 22 1 10 3 12 10 15l15 6c9 4 10 5 12 9q4 9 4 18l2 7 2 5q-1 5 7 10l8 4c4 4 5 4 11 1l4-3 6 4c7 3 8 3 17 3h9l4 4 15 18 4 9q3 6 2 14-1 19-4 21-2 2 1 9v4l-5 4q-6 4-6 18c-1 7 0 7 2 9l3 3q0 7 5 13l18 26q7 8 13 3l9-5q6-1 8-3c5-3 6-3 13 0l9 4 6 3 8 2 21 5 20 4q6 1 10-3l10-7 4-2 7 1 33 13c2 2 4 2 16 3 15 1 35 0 39-1l10-7 9-7c3 0 11 3 14 5l8 3c6 2 6 2 11 0q9-6 7 1v19l3 13c2 3 3 10 1 10l-7 3-11 4q-17 6 1 12c7 2 11 2 29 0h12l8 2q7 1 7 13l1 8q2 3-4 5-8 3-9 7l2 3c3 3 7 16 7 22 0 8 6 9 10 2l6-9 6-7q1-3 7 0 7 1 3 4l-3 5-3 6-3 5c0 3-18 20-18 19l-1-5-2-6q-2-3-4-1-3 1-3 4l-3 10q-6 8 0 10 3 2 11-7 3-3 4 0c1 1 2 1 12-1l11-2 8-2 8 3 7 6 2 4 1 7 2 9q1 5 4 6c6 3 7 6 6 18 0 10 0 10-3 10q-6 0-8 6l-5 10-4 9c0 2 1 2 13 2h12l-3 10-3 16c-1 8-1 8 1 9h7l8-1 5-1 11-3 10-2 8 4 9 4v5q0 6 5 8l7 2q4 0 7 7 4 9 0 11l-9 11-1 2q0-4-7 0t-5 8l2 7q0 7 3 6 2 0 3-4 0-5 5-12l2-3 2 4c3 7 3 8 10 11 8 3 8 4 8 7l1 5 2 7q2 9 9 15l9 7q7 7 12 3l14-8q3 0 4-5 1-2-5-6l-5-3 1-4 3-7 1-5q-1-2 6-3l9-2q6-2 17 5l10 6 3 2 3 8c4 9 5 13 5 23q0 8 2 8l5 2 10 2c9 3 9 3 13 1l3-2 4-5 8-10q4-8 12-9l6-2 4-8 4-13q3-10 8-15l3-6 2-21 1-17-3-5-3-6v-14c0-14 0-15 2-21l6-10 2-4-1-5-3-12-2-7q-2-2-6 2l-8 9-7 6h-7l-25-2c-18-2-18-2-22 0q-3 2-10 2l-16-2c-9-1-14-2-25-7-4-3-4-3-5-8q-1-12-9-6c-2 3-20 9-24 9l-8-3-7-3-1-6-2-12q0-6-3-7-2-2-8 1-7 5-13-2l-7-3-5-4-8-6q-4-2-5-7l-6-18q-3-5-2-8l2-8 5-15q2-8-1-15l-3-6q-4-12-19-26l-10-10 3-4q5-7 2-19v-12l-1-7c-1-2-12-9-17-10h-3l3-3 6-8 5-6q5-5 2-9l-6-2q-13-2-10-6l1-13 2-14 1-9c0-5 1-7 5-16q8-16 20-24 12-7-1-13l-46-35q-18-13-23-22l-2-6 1-12 2-11 5-6 11-8q6-2 5-5 1-4-5-7a108 108 0 0 0-43-17l-11-4-10-3c-5-3-20-3-37 1l-19 6-7 4-7 5-4 3-5-1-45-14-7 2-6 3c-3 1-4 1-12-4a220 220 0 0 0-47-20l-10-3-8-3a410 410 0 0 1-34-51q-1-5-6-5c-2 0-10 7-14 12q-4 7-12 5l-12-1-11-1-7-2q-3 0-7-3l-10-3c-8-2-9-3-6-14q0-6-8-4l-4 1-13-16-9-3-9-2c-4-2-5-2-6-8l-2-7-7-2-12-4q-14-3-17-9l-3-3c-2 0-8-11-12-20l-8-20-4-11v-16q0-30-3-33l-6-2-11-2-9-2-5-6-5-8c-1-3-1-3 2-10q7-11 1-14l-14-4-12-5-4-5-5-9-5-7c-4-2-26-1-30 1m27 3 4 6 5 7 2 4q0 6 22 11c9 2 9 3 4 12q-6 8-1 12l4 8 4 6c2 2 19 6 24 6 6 0 6 2 6 28l1 22 4 11q9 26 15 33 9 14 18 17l8 3 9 3 8 2 2 6 3 7c2 2 10 5 14 5 6 0 8 1 15 10l9 9h5q4-4 3 2-4 13 9 15l9 3 7 3 9 2c5 2 9 2 20 2h14l3-3 7-8 6-5 4 6 7 10 5 8q1 4 7 11c16 22 15 21 19 22l10 2 14 5q13 3 41 20 6 4 12 0l9-3c6-1 6-1 21 4l28 10q5 1 9-3l8-5 5-4q3-3 29-8 16-2 23 1l11 3 13 4 13 3c8 3 30 14 30 16l-5 4q-18 12-17 25l-1 9q-2 4 1 10 5 13 19 22l22 17 10 7 21 16 4 2-4 3c-10 9-14 13-20 25-6 10-6 12-7 19l-4 40q0 2 9 5l8 3-2 3-7 8q-2 5-6 6-6 5 1 9l5 1 7 3 6 4v10c1 22 1 21-2 25l-3 4 11 13c9 9 11 12 17 23l6 15q0 4-3 10l-3 12-1 7q-2 2 4 18c5 16 5 16 10 19l8 6 5 4 5 3 8 5q6 0 14-3 2-1 2 6l5 19 10 4 8 3 9-3 10-3 5-3 4-2v3c0 7 2 8 11 13 12 5 11 5 23 6 26 2 25 2 29 0h20c32 2 32 2 35 1l9-8 7-6v3l2 9v8l-5 8c-4 7-4 8-4 24v17l3 5q5 7 3 9l-1 17c-1 15-1 17-5 20-3 3-7 11-8 15l-6 19-4 2q-8 1-14 10l-10 11-5 6-6-1-9-3-5-1h-3v-6q2-10-5-25-4-9-7-10l-7-4q-3-4-10-6c-6-3-7-3-13-2l-11 2q-9 1-9 7l-1 4-2 5-1 4q-3 5 5 9l4 3-9 6-9 5-3-3-8-7c-5-3-10-11-10-16l-4-14q-3-4-11-7c-4-1-4-1-7-9l-2-5 2-3q2-4 6-4 6-3 2-13c-5-11-5-11-9-12l-8-2-4-1 1-5q1-7-6-8l-6-3c-8-5-9-5-19-4l-12 3-10 2-8 2 1-3 1-8 1-7c7-18 7-19-9-18l-11 1 5-10c5-10 6-10 9-10 5 0 6-2 6-15-1-13-2-16-7-19q-4-2-5-7l-1-9q0-3-4-11l-7-6c-7-5-10-5-17-2l-6 1h-8l-6 2 7-7q7-8 11-17l7-11q4-4 1-7l-15-4-4 3-8 9-5 8-1 1-1-4-2-10-3-7-1-3-2-2 9-5q6 0 3-10l-1-9q0-8-8-12c-12-4-16-5-34-2-8 1-10 1-15-1l-6-2 4-2 10-4 8-3 3-2q3-2 1-5l-1-4-2-4c-3-3-5-23-3-30v-7q-3-6-11-1t-17-1l-10-4q-6-3-8-1l-14 10q-2 3-7 4l-24 1c-21 0-21 0-25-2-8-6-34-15-41-15-3 0-13 5-15 8q-4 5-15 3l-12-3-24-5-8-3c-20-9-21-9-24-9l-6 3-6 3q-9 2-13 5-2 3-5-1l-7-10-9-12q-6-10-7-18 0-2-3-3-3 0-1-7 1-13 6-15 9-4 4-11l-1-6q3-2 4-22l-1-14-2-7c0-2-11-16-20-25l-4-5-9 1c-10 0-10 0-18-4l-8-3-5 2-5 3-4-4-5-3q-4-1-6-6l-2-9-3-13c-2-11-5-14-16-20l-21-10-2-9c-1-10-2-11-15-23-9-7-11-8-14-8-9 0-13-2-22-9q-17-16-23-28-10-21-15-22l-14-3h-11l-14-13-17-16-16-20q-5-8-11-8l-9-4-28-12h-9l-11 3-15 5c-9 4-8 4-25-4l-10-5-1-7q1-10-8-16-6-3-20-2c-11 2-16 0-24-6-5-4-7-4-14 2-8 9-7 10 6 11q15 1 18 8c1 4 1 4-1 8-3 4-15 12-20 14q-10 3-24 1c-23-3-20-3-47 5l-11 3-7 3-3 2c-1-1 6-23 9-28q4-7 21-15a466 466 0 0 1 90-27q11 1 25-14 5-4 6-9l1-5 9-2 12-2q11-2 12-7l1-14 1-11 5-5 11-9 11-9 8-6 14 2 14 3c3 0 16-4 30-10l15-6 9-3 8-7 10-7zm556 723v2l-4 3-3 1 5-13v-3l1 4zm132 173-3 6-3 4-1-5q-1-3 3-4z"/><path d="m955 767-9 4-5 3q-2 2 2 6 7 6 11 0l5-6q5-4 3-6-1-6-7-1m-2 7q-4 6-6 3-5-2 4-5 9-5 2 2m55 135-4 6-5 7-4 6-3 6c-5 7-5 7 1 12 3 3 4 3 13 3 12 0 15-1 21-7q7-5 3-12l-1-8c-1-8-2-8-6-11l-5-4q-4-3-10 2m7 2 4 3c3 2 4 2 5 9l2 9q3 5-4 9c-4 3-5 3-14 4-10 0-11 0-13-2l-2-3 3-5z"/></svg>
