<svg xmlns="http://www.w3.org/2000/svg" viewBox="0 0 175.4 74.8"><title id="logo-title">natural</title><path fill="none" d="M0 0h175.4v74.8H0z"/><path d="M138 19.3a33.7 33.7 0 0 0-17 20.3c-.2 1.3-.7 1.7-4.7 3.7a45 45 0 0 1-7.4 2.8l.5-1c2.7-4.2 3.1-8.2 1.2-10.2-2.8-2.8-10.7-1.6-17.4 2.8-1.5 1-1.4 1-1.3.5.4-.9 0-2-.6-2.4-.9-.5-1.2-.4-4.5 2.8a78.3 78.3 0 0 1-18 13.4c-4.5 2.2-2-3 6-12.7 1-1.2 1-1.3 1-1.8 0-1-.8-1.7-1.7-1.3-1.2.5-5.3 6-8.4 11.4-2 3.5-4.4 5.6-5.3 4.7-1-1 1.2-5.4 5.4-10.3 2.9-3.5 4.3-5.4 4.3-6 0-1.1-1-1.4-2-.6a32 32 0 0 1-12.6 1.8c-.5-.1 2-4.5 7-11.3 2.5-3.9 2.8-4.1 2.8-4.7 0-.9-.8-1.4-1.7-1-.5.3-5.5 8-9.4 14.4-1.4 2.6-1.4 2.6-2 2.6a58 58 0 0 1-8.3 0l.6-1.3c.9-2 .9-3-.2-4-1.1-1.1-3.3-.2-5 2.3-1.4 2.1-.4 3.3 1.3 1.6 1-1 1.2-1 1.2-.3 0 1.2-1 3.2-3.3 7.5l-1.8 3c-.3.9-.3.9-.7-.2-2.7-6.7-12.8-5-12.9 2 0 1.2 0 1.2-1.7 2-7 3.6-7.7 1.8-2.8-8 3-5.9 3.6-7.6 2.4-8.6-1.1-1-2.8-.1-7.2 4.3L12 39.3l1-2c3.1-5.2 3.5-6.7 2.2-7-.8-.2-1.3.3-2 1.9A219.1 219.1 0 0 1 .6 53c-.8 1.3-.8 2 .2 2.2.8.3 1.3-.2 3-2.7A78.2 78.2 0 0 1 18 36.7c1-1 1-.8.2 1L15 44.4c-2.7 5.4-3 7.9-.8 8.9 2 .9 5 0 9-2.8.4-.3.4-.3 1 .2 1.7 1.6 4.8 2 8.5 1 1-.3 1-.5 1-.2-.6 1.3-.2 2.2.7 2.2.5 0 1-.4 1.7-2 .7-1.2.7-1.2 2.7-2 3-1.3 7.6-3.6 9.1-4.5.8-.5.8-.5-.4 1.8-2.3 5-3.8 9.9-3.2 10.3.4.1.5-.2 1-1.4 1.3-3.3 4-8.7 6.7-13 2.2-3.8 1.8-3.4 3.4-3.4a61 61 0 0 0 9.2-1.1c1.2-.2 1.2-.3.3.9-6.3 7.3-8.8 12.8-6.7 14.6 1.3 1.2 4.5.7 6.2-1.1.1-.3.1-.3.4.2.5 1.4 2.3 1.8 4 1a96 96 0 0 0 17.7-12.8c2.8-2.6 3.1-2.8 2.5-1.4-.7 1.3-4 4.9-7.1 7.6-1.7 1.4-2 2.5-1.3 3.3.8.8 1.4.4 4.4-2.6l5.1-5.9a28 28 0 0 1 13.1-6.5c7-1.2 8.4 2.4 3.8 9-1.8 2.4-2 2.5-2.3 1-.7-2.2-1.8-3.4-4-3.6-3.1-.4-7.1 2.3-7.4 5.1-.2 3.3 3 4.4 8.3 2.7 1.3-.3 1.4-.3 1.4.2 0 .6.4 1.3.8 1.4.7.2 1.5-.3 3-2.2l1.2-1c2-.4 10-3.9 12.2-5.3.7-.4.8-.4.8.6.6 7.1 7 11.5 19.2 13.4 13.5 2.2 35.5 2 35.2-.1-.1-.4-.6-.4-5.4-.1-13.1.6-30-1-37.7-3.6-5.8-2.1-9.1-5.7-9.5-10.5 0-1 0-1 .8-1.4 8-4.6 17.2-14.6 17.9-19.7.2-2-1.3-3-3.5-2.3zm1.5 2.6c.2 1.7-3 6.3-7 10.3a49 49 0 0 1-9.4 7.3c-.7.4 1.6-4.9 3.2-7.2 4-6.2 13-13.2 13.2-10.4zM50.5 41c-.8 1.2-1 1.2-4 3a73.5 73.5 0 0 1-8.6 4.2l1.5-2.9 2.3-4c.7-1.2.7-1.2 3.8-1.4a152.2 152.2 0 0 0 5.8-.1zm-18.6 2.3c1.6.6 2.9 2.8 3 5.3 0 .5 0 .5-1 1-3 1-6.3 1.1-7.9.2-2.4-1.2-.7-5.6 2.6-6.8a6 6 0 0 1 3.3.3zm69.1.4c1 .4 1.6 1.5 1.6 3 0 .6 0 .6-1 1-4.7 1.4-7 .2-4.8-2.5.9-1.1 3-2 4.2-1.5z"/></svg>
