<svg xmlns="http://www.w3.org/2000/svg" viewBox="0 0 116.7 74.8"><title id="logo-title">pure</title><path fill="none" d="M0 0h116.7v74.8H0z"/><path d="M72.2 31.5c-2.8 1-6.8 4.7-9.5 8.7l-.8 1.3c-.4.5-3.8.6-5.2.2-2-.6-2.9-2-2.9-4.8 0-1.5 0-2-.6-2l-.5-.3c-.5-.6-1.7-.3-1.7.5l-.8 1.8-1.5 3c-.7 1.4-1.5 2.4-4.1 5.1-3 3-6.1 4.8-6.3 3.6l-.1-.4c-.4-1 1.6-6.4 3.2-8.8.6-1 .6-1.6 0-2-1-.6-2 .5-3.4 3.5-1.4 2.7-7.6 8.8-9.1 8.8-.7 0-.3-2 .8-5l2-4.4c.5-.8 0-1.6-.8-1.6s-1.1.3-2 1.7c-.9 1.6-3.8 4.2-7 6.6-1.9 1.2-2 1.2-1 .3 5.2-6 5.8-12.2 1.2-13.6-2.6-.8-5.9.6-8 3.4a48.5 48.5 0 0 0-6.7 14.7l-1.1 2.8A230.4 230.4 0 0 1 .5 71.8c-.8 1.5-.7 2.3.4 2.8 1.5.8 2.4-.4 4-5.7A595.9 595.9 0 0 1 9 56.1c2-.6 4.4-1.9 6-3.1l1.2-.7a46 46 0 0 0 10.2-6.9c.6-.6.6-.6.2 1-1 3.6-.3 5.5 1.7 5.5 1.5 0 4-1.8 7-5.2.5-.6.7-.8.7-.6-1 4 .8 6.2 3.8 4.7a26 26 0 0 0 5.3-4.1c.4-.4.4-.4.2.2-.5 1-.2 2 .8 2.3.6.2 1-.2 1.4-1.2a97 97 0 0 1 3.6-8c.4-.7.4-.7.7.1 1 3 4 4.5 7.8 4 1-.1 1-.2.6.8-.4 1.6-.4 3.3.1 4.4 2 4 9.4 4.8 24.7 3 15-1.6 29.4-5 31.3-7.2 1-1.2-.6-2.4-2-1.3C111 46.5 94.5 50 80.2 51c-2.5.2-8.4.2-10.3 0-7-.8-8.6-2.6-6.9-7 .2-.7.2-.7 1.2-1a23 23 0 0 0 10.9-8.5c1.2-2.3-.4-3.9-3-3zm1.2 2c.4 1-3.7 4.8-7.5 6.6-1.2.7-1.2.7-.5-.4 2.4-3 5.3-5.8 7.2-6.2.7-.2.7-.2.8 0zm-52.1 1.8c4.1 1.2 0 10.5-6.7 15-1.3.8-4.5 2.5-4.7 2.4l.4-1.2.8-2.2a106.8 106.8 0 0 1 4.7-11.4c1.7-2.1 3.8-3 5.5-2.6z"/></svg>
