<svg xmlns="http://www.w3.org/2000/svg" viewBox="0 0 75.9 74.8"><title id="logo-title">raw</title><path fill="none" d="M0 0h76v74.8H0z"/><path d="M65.7 32.9c-1 .5-1.4 1.9-.6 2l.5.2c.3 0 .5 0 .7-.2.4-.6 3-.3 4.6.4 1.4.8 2.6 2.1 3.2 3.6.3 1 .4 3 0 3.7l-.1.7c0 .2 0 .4-.3.6l-.3.6s0 .3-.3.4c-.4.2-.8.7-.8 1l-.4.3c-.2.1-.2.2-.2.3 0 .2-.2.4-.5.5-.4 0-.4 0-.1-.1l.1-.2c0-.1-.6.2-1.1.6L69 48l-.8.3c0 .2-.2.3-.6.3l-.6.3h-.3l-.9.3c-7.1 2-14.4.9-14.4-2.5 0-1.3-1-1.8-1.9-1-.9 1-6 3.6-6.3 3.3-.2-.3 2.1-3.4 4.6-6.2.5-.7.5-.7.4-1.2-.1-1-1-1.2-1.9-.5a116.4 116.4 0 0 0-7.5 5c-.2 0-.7.3-.7.5 0 0-.3.3-.4.2l-.2.2-.2.2-1.2.5c-3.6 2-3.5 2-3.2 1.1l.2-.8c0-.4.1-.6 1-1.5 3.8-4 4.6-6.4 2.8-8.3-1.7-1.9-6.4-2.3-12.2-1.1a32 32 0 0 0-15.3 7.1c-1 .8-1.1.8-.6.1l3.4-6.6c.5-1.4.6-2 0-2.4-.6-.3-.5-.3-1.2 0a89 89 0 0 1-9.7 17.3c-1.5 2.9-1.7 3.7-.6 4 1 .2 1.2 0 1.6-.8a87 87 0 0 1 5-7 28 28 0 0 1 7.9-6.5 39 39 0 0 1 6.5-2.8c4.8-1.4 10.8-1.7 13-.5 1.6.7 1.3 2.2-1.2 5.2-1.2 1.4-1.1 1.4-1.6.8a7.3 7.3 0 0 0-5-2.3 11 11 0 0 0-7.8 2c-4.3 2.8-4.3 7 .1 7.8 2.7.4 7.5-1 10.8-3 .5-.2.5-.2.4.3-.2 1 0 1.5.8 1.8 1 .5 1.8.1 7.6-3.8l4.3-2.8c.4-.2.4 0-.2.7-1.8 2.4-2.2 3.5-1.7 4.5.7 1.4 3 1 6.3-1.1l1.2-.8c.6-.3.6-.3 1 .4 2 4 11.2 4.7 18.6 1.3l.6-.2.1-.2.4-.3c1.4-.2 4.7-2.8 4.4-3.3l.2-.5c.3-.3.5-.5 1-1.6 0-.2.2-.5.5-.7l.4-.7v-.8.1-2.3c-.5-3.3-3.2-6-6.7-6.5a12 12 0 0 0-3.5-.1zm-38 11.4c2.1.4 3.7 2 2.9 2.8-.4.2-3 1.8-3.7 2-5.5 2.4-10.4 1.7-8.4-1.1 1.6-2.6 6-4.3 9.2-3.7z"/></svg>
