<svg xmlns="http://www.w3.org/2000/svg" version="1.0" viewBox="0 0 1170 471"><path d="M213 2C136 9 50 67 50 111c0 5-7 11-10 8-17-15-13-63 5-60 6 1 8-2 2-4-23-6-32 40-13 64 4 5 4 5-4 13-24 24-28 47-10 59 2 2 2 2-4 8a62 62 0 0 0-11 64c18 36 69 23 124-29 5-6 6-6 7-5 6 4 32 40 32 42h4l-1-10c-4-19-2-62 4-94 2-11 2-14 0-14l-5 11c-7 20-33 61-36 57l-7-9c-10-11-10-9-1 3 8 11 8 10-13 28-42 34-72 44-93 31-16-10-20-39-9-61 4-8 14-18 17-17 14 4 44-1 63-10 8-3 8-3 17 7l10 9-2-3-10-11-12-12c-12-11-36-38-35-39h5c27 6 67-16 67-37 0-20-32-17-67 5-10 7-11 7-9-1C72 43 193-11 265 10c53 15 56 45 19 161-14 42-16 51-16 69 0 33 9 35 25 7 3-7 3-7 6-1 3 7 7 10 14 13 14 7 41-2 48-16 2-5 3-6 6-7l5-2v5c-1 13 11 29 22 29l3 3c5 12 26 8 50-9 24-15 29-32 15-47l-3-4c2-2 56-3 68-2 13 2 11 6-15 24-30 20-36 31-21 38 10 5 25 5 46-2 11-3 11-3 12 1 4 14 37 10 64-7 9-6 8-6 8-1 0 12 7 11 19-3 6-7 4-7 41 0 41 7 57 4 66-11l5-4c5-2 5-2 6 2 3 4 3 4-8 11-84 53-117 84-126 116-12 42 25 73 106 89 54 11 114 11 128 1 9-8 7-15-17-56a891 891 0 0 1-75-154 766 766 0 0 0 58-47c33-30 43-52 34-75-4-9-3-10 4-8 28 6 62 64 62 106 0 12-2 13-12 5-44-33-81-38-80-12 0 26 31 36 78 24 9-2 10-2 13 0 2 2 5 0 5-3l4-4 28-14c4-3 4-3 4 5 2 12 9 21 17 21 10 0 25-15 25-27 0-4 45-2 67 3 20 4 24 10 16 25-5 10-4 12 6 11 12 0 37-8 51-16 41-25 25-74-28-83-14-3-28-2-28 0 0 1 4 2 12 2 41 0 69 26 61 55-4 16-33 34-65 38-7 1-7 0-3-8 10-22-8-31-70-32-22-1-20-1-25-7-5-7-24-12-27-8-7 7 4 15 22 17 9 1 9 7 1 16-13 16-26 11-27-9-1-12-2-13-11-7-6 5-27 15-29 15l-1-2c1-3-1-23-3-32-12-45-43-84-67-84-8 0-9 4-4 15 12 25-11 58-68 99l-13 9c-10 7-9 7-11 2-1-4-1-4 2-8 5-6 5-16 1-25-6-12-9-11-11 0-1 7-1 18 2 26l-3 4c-4 2-4 2-5-3-3-10-10-13-24-13-28 1-44 25-21 30 6 2 5 4-2 4l-51-9 6-9 12-18c6-10 7-12 14-17 23-16 36-35 18-25-7 3-8 6-1 3s-5 9-18 19c-13 8-43 26-45 26l-1-4c0-3 0-3-1 1s-3 7-5 6l3-22 2 5c1 6 1 6 1-3-1-11-1-13-4-13-2 0-3 3-7 32 0 4 0 4-7 7-8 4-8 7 0 10 6 2 6 4 1 8-18 17-65 26-65 13 0-4 2-5 10-9 6-4 13-9 13-11l-4 2c-4 4-13 9-14 8-1-2 12-11 25-17 20-11 21-12 5-11-19 1-23-2-14-11 11-11 31-16 29-8 0 2 2 3 2 0 4-9-6-11-21-4-23 11-26 25-6 27 8 0 8 0 0 5-14 7-24 15-26 20-4 7-46 14-57 10-13-6-9-14 19-33 22-15 26-18 26-24s-14-8-44-8c-37 1-49 3-44 7l5 5c4 3 8 11 8 17 0 10-11 25-13 18-3-11-38-5-50 9-9 9-25-3-25-18 0-6 2-12 3-12l10-5c21-12 40-31 38-37-4-12-41 15-51 37-3 6-15 10-15 4l-2-3c-13-17-59 0-48 18 4 6 15 6 34 0 12-4 12-4 9 0-10 14-39 17-49 5-6-7-7-13-2-24 3-8 3-13-1-13s-6 5-7 16c0 9-2 13-13 27-8 12-10 8-10-15 0-20 1-27 15-68 27-85 31-116 19-139-12-22-52-36-94-31zm-91 91c12 5 2 24-20 34-16 9-46 9-47 0-3-11-3-10 5-16 24-17 50-24 62-18zm-72 30c0 4-1 5-4 2-2-1-2-1 0-3 2-3 4-2 4 2zm-3 8c5 3 7 4 8 8 2 3 7 10 19 21l16 16-14 1c-16 0-28 2-42 9-8 4-10 4-15-2-11-11-7-29 13-49 9-9 7-9 15-4zm122 52c-5 37-6 55-3 72 0 5 0 5-6-2l-13-17c-11-13-10-10-2-22 8-11 15-23 21-36 4-10 4-10 3 5zm-82-2c10 2-23 12-42 12-12 0-14-1-7-4 14-7 38-11 49-8zm336 10c0 6-35 34-40 33-1-1 5-11 10-16 12-11 30-22 30-17zm567 19c10 5 11 7 4 7-10-1-18-5-18-9 0-2 8-1 14 2zm-228 3c4 7 2 24-2 20-1-1-3-14-2-19 1-8 1-8 4-1zm103-1c12 3 47 24 49 29 0 1-15 5-29 6-26 2-44-5-48-20s8-21 28-15zm-197 6c-10 17-21 30-25 30l-12-2c-2-1 5-14 7-15l17-9c16-9 17-9 13-4zm-317 6c8 4 10 10 4 13-20 9-40 10-40 2 0-11 24-20 36-15zm385 5c8 4 11 13 5 16-9 5-33 8-40 4-16-8 17-27 35-20zm-106 11-3 4 2-8c2-1 2 0 1 4zm-7 2-2 2c-2 0-4-2-2-3 2-2 4-1 4 1zm-177 9c8 4-16 14-34 14-9 0-9 0-5-4 10-9 31-14 39-10zm189 0 6 2c0 2-12 12-14 12-2-1-3-8-1-12 1-3 0-3 9-2zm104 0c0 4-19 9-24 7s-4-3 5-4l19-4v1zm25 11c12 35 39 90 65 134 33 55 35 61 20 66-12 4-55 5-84 1-154-19-182-83-71-164l67-45 3 8zm-336 7c-10 5-21 6-25 3-2-2-1-3 8-3l13-1c7-2 9-1 4 1z"/><path d="m615 125-13 24-4 8c-3 7 0 3 7-8 8-13 11-16 10-10v3c2-2 4-15 3-17h-3z"/></svg>
