<svg xmlns="http://www.w3.org/2000/svg" version="1.0" viewBox="0 0 949 429" fill="#fff" preserveAspectRatio="none"><path d="m754 1 6 2h3l-3-2-6-1h-3l3 1zm10 3c0 1 3 2 4 1h3v3h1c3-2 6-1 6 0v2l1-1c1-2 5 0 5 2l1 1 2 2c0 2 2 3 4 2h3c1-2 7-1 7 0s1 2 3 2c2 1 2 1 1 2l-1 2c1 1 3-2 2-4l2-1c6 2 8 2 7 1l-4-2-4-1-6-1-5-1-6-3c-24-8-26-8-26-6zm27 8-1 2-1-2c1-2 2-1 2 0zm-58-7c0 1 4 2 6 0 1-1 1-1-2-1l-4 1zM154 6l1 2 1-2-1-1-1 1z"/><path d="m657 6-2 2-3 2h-4c1-1 0-1-3-1-2 0-2 0-2 2v2c-2 1-4-1-4-3 0-3-2-3-3 0l-4 2c-4 0-3-2 1-2h2l-2-1h-6c-2 0-3-1-3-2s-1-1-1 1c-1 1-2 2-5 2l-6 1c-2 2-5 2-5 0 1-1 0-2-2-1v4c-3 2-5 2-6 0 0-2 0-2 2-2s2 0 0-1c-3-1-10 0-10 1l-2 1c-1-1-11 1-12 2l-3 1-3 1c-2 2-5 1-6-1 0-5 0-5-5-4l-5 2-9 2c-7 2-11 4-9 5l1 3 1 3-1 2c-2 0-2 0-1-1l-1-2-1-2c1-2-3-5-5-5l-2 2c0 2-1 2-2 1h-1l-3 1c-4 0-6 1-7 2h-5c-1 1-2 1-1 2l-1 2c-1 2-1 2-1-2-1-4-2-5-4-2h-1c0-2-2-3-2-1l-3 2-1 3-2 1-2-1 1-1c1 1 2-2 1-3h-2c-1 1-1 1 0 0l2 1h-5l-1 4c1 4 0 8-2 6v-6l-1-2c1-2 0-2-3-2l-5 2-7 2h-4l-3-1h-1l-3 1-4 1-2 1v-2c-3 0-6 4-6 5 1 2-1 4-3 3v-6 3c-1 0-2-1-2-3l-3-2c-5 0-6 0-6-2l1-2c1-1 0-1-1-1l-2 1v1c-1 1-1 3 1 6 1 2 1 2-3 1h-5l3 1c2 0 2 0 0 1l-4-1c-1-3-1-3 2-4 4 0 3-1-1-2l-4-1 1-1 1-1-1-2c-1 0-4 4-3 5 0 1-3 2-5 1h-3c-1 1-1 1 1 2s2 1-1 2l-6 2-2 1-1 1c0 2-2 4-4 3v-2l1-1-1-1h-2l-4 1h-8l-6 2-5-1 3-3c2-1 3-3 0-2h-2l3-1c3-1 4 0 3 1v2l1 1 2-1 2-1h2l1-1 1-2c1-2 0-2-2-2l-3 1 1 1h2c0 2-3 2-4 0 0-2-1-2-3-2-4 1-13 0-12-2l-2 1-2 4c1 1 0 1-1 2-2 0-3 1-3 2l-6 1-8 2h-1v-2l3-1h5c2 0 2 0 1-1h2c2 1 4 0 3-1l2-1c1 0 2-1 1-2l-1-2-4-1-2 1c1 1 0 2-1 2-2 0-2 0-1-1l1-2v-1l3-3 1-3v-4l-2-1v-1h1l-2-1h-5l-1 2c0 2 1 2 4 2 1 0 2 2 0 4h-5v-1l-2-3-1-4c0-3 0-3 2-3l4 2c1 1 2 1 4-1l2-2h-7c-8 0-9 0-7 3v1l-1 1-1 2 1 2c3 1 3 1 1 2h-12c-3 0-4 2-2 4h1l1-1 1 1v3c1 1 1 1-1 1-2-1-2 0-2 1 0 2 2 3 2 1l1-1v2c-1 2-3 2-7 1-2 0-1-3 0-3 2 0 2 0 1-2l-1-3 2-2c0-2-1-2-3-2-7 0-9 1-8 4 0 3-1 4-3 1l-4-1-2-1h4l3-1-5-1-6-1-3-1h-1l1-3 2 1 3 1 2-1 2-1c2 0 3-1 3-2l-2-1-2-1 2-1h2c-1-2-4-1-5 0s0 2 1 3 1 1-4 1l-5-1-4-1-3-1 1-1v-1h-4 2v1l-2 5c0 4 0 4-4 5l-5 2c-1 2-2 2-4 1l-3-1-2-1-3-1c-1-1 2-3 2-2l2-2v-4l-3-1c-3 1-4 3-3 5l-1 2c-2 0-2 0 0 1 2 2 1 4-4 4l-6 2-3 1c-2-1-6 1-5 3l-1 1h-2l-1 1-1-2-2-1c-2 0-1-2 2-2l3-1 3-1 4-2c0-2 0-2-2 0h-2l-1-2-1 1c0 1-1 2-3 2-3 0-3 0-2-6l-1-5c-1-1-9 0-9 1l1 1 4 3c2 2 2 2 1 4v1l-1 1-2 3c0 2 0 2-2 2-3 1-4-1-3-3l-2 1c-2 2-3 3-5 2-2 0-3-3-2-4v-2c-2-1 0-6 2-6 1 1 2 0 2-1 1-1 0-1-2-1h-3l3-2c2-1 2-1 1-2l-3 1h-3c-2-1-2-1-2 2-1 1 0 3 1 4 0 1 1 1 0 0l1-1 1 1c1 2 0 2-2 2l-2 1-1 3c-1 2-1 2 2 2h3v2h-12l2-2 2-4 1-3 1-3 1-2c2 0 1-2-2-3s-5 0-5 3c0 2 0 3-3 3l-3-1 3-1v-1c-1-1-1-1 1-2 2 0 3-2 0-2-1-1-7 1-7 2l-3 1-3-1-1-2-2 2-2 2-2 1-1 2c-1 1-1 1-4-2l-1-2c1 1 2 0 2-1 0-2-4-2-6 0s-4 2-4 1h-1l-1 1-4 2c-3 3-5 4-4 1 1-1 1-1-1-1l-2 1-1 2c0 2-1 3-2 3-3 0-6 2-6 5 0 2-3 3-12 5l1 1h9c7 0 7 0 6 1l-5 2-4 2 4 1c10-2 21-2 22-1h1c0-2 5-3 6-1s-1 3-5 2l-4 1c-1 1-1 1-1-1h-1c-1 1-2 2-4 1-2 0-2 0-3 4v2l1 1c-1 1-2 1-3-1h-5l-3 1-6 1h-8l2-1c3 0 8-3 7-5l-11 2-10 2-2 2c-1 1-2 1-3-1h-5l-5 1-2 1-14 1c-6 0-8 1-10 2l-4 2-6 1c-3 1-4 1-7-1s-4-2-6 0h-4l-8 2c-4 0-5 0-5 2l-1 1h-4l-3-1h-9l1-3c2-3 2-4-2-2l-1 3c1 3-1 8-4 8l-3-2c-2-2-2-2-4 0-1 1-2 2-1 3l1 3 2 3c3 3 3 4-1 3-2 0-2 0-1 2l2 3c1 2 1 3-1 3s-1 3 1 3l2 2 1 2 3 1v1h-2l-1 1c-2-1-3 1-3 3 1 2 2 2 4 2 2-1 2-1 2 1-1 2-1 3 1 3l4 1c1 2 1 2-1 3h-3l-3 1c-2 0-2 0 1 2 2 1 3 2 7 1l8-3c4-1 5-1 4 2 0 3-8 6-9 5v-2c1-2-3-1-6 1-2 3-5 4-4 2 1-1 0-1-2-1l-3 1c1 2 0 2-3 3-4 0-4 2 1 2l2 1c-1 1 4 2 7 1h2c-1 2-7 3-10 2-2 0-3 1-1 3v1c-1 0-2 1-1 2 0 1 1 2 3 1 2 0 2 0 0 1s-2 1 0 3c1 1 1 1-1 1-3 0-3 2 1 2 7 2 8 2 8 1l3-1h2l-2 2-5 2-2 1-1 1-1 1c0 1-1 2-3 2H8l3 2 3 3v3c-1 0-1 1 1 2l3 1 2 1c2 1 2 1-1 1h-4v3l2 2 2-1h1c0 2 3 1 3-1l4-2h2l2 1v1h-4l-4 2-3 3-1 1-1 2h-2l-1 1c1 1 0 1-1 1l-3 1 1 1 4 2 1 2-2-1-4-2c-1 1-1 1 1 2l2 2 1 2v-1h1c2 1 2 1 0 2l-3 2c-1 1-1 1 1 1 1 0 2 0 1 1h-1v2l1 4-9 3H3l6 1 3 1 3 3v-2c0-2 1-1 4 1v1c-1-1-2 0-2 1l-2 1h-2l-1 1-1 2-1 2c-1 1-1 1 1 1 3 1 4 5 0 6v6l-1 2c-2 2-2 2 0 2h2l3 1c4 2 7 5 3 5l-1-1-2-1-3 1-2 1 2 1 5 1 1 1-2 1-1 1c1 2 0 2-3 2l-3 1 2 1 4 1c2 1-2 2-8 1-3 0-4 0-3 1l3 2v1c-3 0-2 2 0 2 5 1 8 1 8-1l1-2c2-1 2-1 2 1v4l-1 1 2 1 2 1c0 2 0 2 1 1h2l4 2 5 1c5 0-1 2-7 2-5 0-6 1-4 2v2l1 1h1l5 1 6 1 7 1 8 2c2 0 2 0 1-1-2-2-2-2 1-2l4 1v3l-1 2 5-1 5 1-4 1c-4 0-4 0-1 1 3 0 3 0 3 3-1 3 0 4 1 3l3 1 2 2 4 1c2 1 2 1 0 2h-3c-1-2-8 0-8 1l2 2 3 3c1 2 1 2-3 2-3-1-4 0-4 1 0 2 0 2 1 1s3-1 4 1v1h-4c-2 0-6 4-4 5 1 1 9-1 9-2l1-2c1-2 2-2 3 0s-1 5-5 6h4c4 0 5 0 4 2h-2l-2-1 1 2c3 2 2 3-3 2l-5 1 1 3 2 1c3 0 5 1 4 2 0 2 1 2 6 2l18 2c0 1-3 2-4 1l-1-1v1l-2 3c-2 2-2 2 3 4l4 1-3 1c-3 0-6 3-3 3l3 2v1c-1-1-2 0-2 1h-1l-1 1 1 1 1 1-2 1c-1 0-2 0-1 2 1 4 2 5 5 3 2-1 2-1 2 1l2 2 3 1 2 1 1 1h-4c-1-2-2-2-6-2-6 0-7 0-5 2 1 2 1 2-1 2v2c-3 1-2 3 0 3 3 1 4 3 2 4-1 1-2 0-4-1l-5-2 1 1c2 1 3 4 0 4-1 1 0 1 2 1 3-1 3-1 1 1s-3 3-1 3l2 2c0 2 0 2 1 1 0-2 1-2 5-2l6 2 3 1c2 1 1 1-1 1-2-1-3 0-3 1h-3c-2-1-4 0-2 1 1 1 0 1-1 1l-2 1 2 1c3-1 5 4 2 6h-6c0 1-1 2-3 2l-2 1c0 1 7 2 8 1h3l1 1-2 2-1 1-1-1h-3c-4 0-4 0-2 1l3 1h-3l-3 1 4 2h8l-1 1-1 2h-1c-2 0-2 0-1 1v2c-1 1 0 1 1 1l2 1-1 3 3 1 7-1c3 0 4 0 3-2l-4-1-4-1c-1-1 1-2 14-2a172 172 0 0 0 20 0h3c3 0 3 0 1-2-1-1-2-2-3-1h-5c-4-1-9-1-12 1l1-2c2-2 2-2 1-3s-1-1 1-1h3l3 1c2 0 3 0 2-1l1-1 3-1 1 1 2-1c2-2 2-2 3-1s2 2 3 1l4 1v1h-3v1h5v-2l1 1 1 2c2 0 0-3-3-4l-2-3v-4c-1-2-1-2-2-1h-4c-4 0-4 1-1 3h2l1-1v2h-5l-1-1-1-1c0-1 0-2-2-2l-3-1h-1l-3 3c-3 0-3 0-2 1 2 1 1 1-2 1l-5 2h-2l2-2 2-1 2-2c2-1 2-1 0-1l-3 1-13-1-2-1c-1-1 0-1 2-1l3 1 18-1 7-3 2-2c1 1 11-2 10-3h2c1 1 2 1 5-1 3-3 7-2 7 2-1 1-1 2 1 2v1c-3 2-1 3 4 2 4 0 5 0 3 1v1l1 1h-5l-7 1c-3 1-4 1-5-1h-1c0 2-1 2-2 2-2-1-1 1 1 1v2c-2 0-2 1-1 2h4l1 3c0 2-1 2 6 0l6-1c2 1 9 0 9-1l-3-1c-4 1-6 0-4-1v-1l-3 2h-1c0-2 1-3 4-3l2 1h2l3-1 4-1 3-2-3 1h-5c-1 1-2 0-2-2 0-3 1-3 6-2l5-1 2-1 3-2 3-2 2-1c0-1-1-1-4 1h-2v-7l-1-3-4-3c-2-2-2-3 0-4h2l2 2c4-1 6 0 5 1 0 2-1 2-2 1s-1-1 0 0v6c0 4 0 5 2 4l3-1h-3l-1-1 2-1h4c0-2 0-2 2-1l2 3 2 1 2-1c1 0 1-1-1-1-2-1-2-1 0-1 3 0 5-2 5-3l-3-1-2-1-2-1-1 1-4 1-4-1v-2c1-1 2-3 1-4l4-2h5c4-1 5 0 6 1s1 1-3 3l-3 1h4c2-1 3 0 4 1 0 1 1 2 4 2h3l-3 1c-4 1-5 3-1 2h7c2 0 4 0 3-1v-1c0-2 2-1 2 0 0 2 6 2 8 0h2v1l1-2 1-1 2-1 1-1v2l2 1 2 1h-4c-2-1-3-1-2 1 0 2 1 2 4 2 3-1 4-1 4 1l-1 1v1h4c3-1 3-1 0-1l-2-2 2-1h1v-3c1-1 1-1 1 2l1 3c1 1 0 3-1 4-1 3-1 3-2 1-2-1-2-1-6 1l-10 4c-4 1-5 1 0 1 4-1 7 0 5 1h-2l-2 1 5 1h5l-2 2-3 4h-2v4h3l4-1c2 0 3-4 2-6v-6l3 2c2 2 2 2 0 3v2l4-1h4v-1l1-1c4-1 5 0 4 2h1l2-4 3-4c1-1 1-1-1-3l-2-3v-3l-1-1-1-2 2-1 3 1 1 1c2 0 2 1 1 5l1 5 1-1v-2c0-2 0-2 1-1 2 1 2 1 1-1l1-2c2-1 4 0 3 2l-1 2-1 1 2 1c1 1 1 0 2-1l1-2v-3l-2-4c1-2 0-3-1-3v-3l1-2h2c3 0 4 1 1 2-2 1-1 3 1 3 3 0 3 0 2 1l-2 1-1 1 3 1c2 0 2-1 2-5l1-3v-1c-1 1-2-3-1-4l1-3h2c2 0 2 1 2 2 0 2 0 2 1 1l2 1c1 1 1 1 1-1l1-2 1-5h2l1 3v1l1 4 1 3 1-4 2-2c2-2 3-3 3-5l1-4 1 1 1 2 1-1c0-2 0-2 2 0 3 3 2 5-2 6l-3 1 3 1c2 1 2 1 0 1v3l-2 2v2c-1 2 0 5 2 3h1l-2 2-1 1c3 0 6-4 3-4-1-1-1-3 1-5l1-3 1-1 1 1c0 2 0 3 1 2 1 0 1-3-1-4v-6l1-4h2l6 4v-3h2l1 3c0 2 0 2 1 1h2c2 3 2 2 0 3-3 0-7 3-7 4h1c1-2 4-2 4 1 0 1-1 2-5 1-3 0-4 0-3 2 0 2 0 2-2 1h-3l2 1 2 1c1 2 4 1 5-1l5-2c3-1 4-1 3 1l1 2v-3c0-4 0-4 1-3 1 2 2 2 3 2 2-1 2-1 1 1l1 3c2 1 4-1 2-2s0-4 4-5h4l2-1c2-2 1-2-5-2-4-1-6 0-6 1l-3 1c-2 0-2 0-1-1 2-1 1-3-1-3l-2-2c1-1-2-2-4-2v-1l3-1h5c0 2 1 2 2 1 1-2 3 0 3 2l2 3h1l-1-2c-2-1 0-3 1-2l2-1h3l2 2 1 2v1c-1 1 1 7 2 7v-2l2-1 1 3c0 2 2 3 3 0l2-1 1-3c-1-3-3-5-3-3l-1 2c-3-1-2-3 1-4 4-2 5-5 2-6-1 0-1-1 2-2s5-2 6-1l2 1h1c1 1 0 1-1 1l-4 1v1h1-2l-2 1 1 1v1c-1 2-1 2 1 1v1c-3 2-2 4 1 2h3-1l-1 1h-1c-2-1-1 1 1 3 3 3 5 3 4 0-1-1-1-2 1-2l2-1 2-2 2-2 2 2c1 2 2 2 3 1l4-1c3 0 6-2 3-2v-1l1-1-1-1c-1 1-1 0 0 0 1-4 6 0 4 3l1 2 2 1h1c0-2 4-3 4-1l1 1 1-2 2-1c1 1 2 1 2-1l1-1c1 1 1 0 0 0l1-2v-2l2-1c1 1 2 0 2-1l1-1c1 1 2 0 3-2l2-2v5h-1v-1l-2 2-2 5c-2 1-2 2-1 2l3 1c2 2 6 3 6 2l1-4v-1c0-1-1-1-2 1-1 3-2 2-2-2l2-4v3l2-3c0-3 3-5 4-3l1 1 3 2c2 2 2 2 0 3-1 1-2 2-1 3 0 2-1 3-3 2-1-1-1-1-1 1s0 2 6 2l6-1-1-1c-2 0-4-3-4-7l1-6 1 1 2 2 1 1c-2 0-3 1-1 3 2 1 2 1 3-1s6-2 6 0v3l1 2c1 0 2 1 1 2 0 1 0 2 1 1l1-1c1 1 1-4-1-5-2-3-2-5-1-6s4 1 4 3 0 3 2 3c1 1 1 0 1-2-1-3 0-6 1-3 1 2 3 3 3 0l1-1 3-1 1 1v1l1-2c0-1 0-2-2-1l-1-1h-7l-2-1-1-2-1 1v1l-5 1c-2 0-3 0-3-2s4-6 4-4h11c1 2 1 2 3 1 3-2 6-1 9 1h1c-1-2-1-2 2-2l2-1 2-2c3 0 5 1 4 3 0 2 2 3 10 3h5l2 2c3 1 4 2 1 1-3 0-3 2-1 3s2 2 1 2v1c2 2 2 2 1 3l-3 2-1 1 1 1c2 0 1 3-1 4-2 0-2 1-1 1l1 1v2l1-1 1-1c1 1 2 0 2-1v-2l-1-2 2-1c2 0 3-1 3-2l1-2c1 0 1-3-1-7l-2-3h3c3 0 4 0 4 2l-2 3h2c2 0 2 0 1 2l-2 3v3l2 3h1c0-2 0-2 3-1l3 1h1l3-1 3 1 1 1 2 1-1 1v3l1 1 2-2 1-1 1-1-2-1c-1 0-1-1 1-4l1-5 2-1 1 2c-1 1 0 2 1 3v1c-2 0-5 3-3 3l3 2c2 2 2 2 3 1 1-2 1-3-1-3h-1l5-1c3 0 3 0 1-2-1-1-1-1 1-1s2 0 2 2v8c1 2 1 2 2-1l2-5 1-3 2-1c3 0 4 3 1 4-2 0-1 2 1 2h1l1 1 1-1c0-1 3-2 4-1s1 1 2-1l-1-2v-2l1-3c0-2-1-3-3-3s-2 0 0-2h3l1 2v1l1 1v5l1 1v2l-1 3v1c3 2 6 0 5-2h-2c-2 1-1-2 1-4l3-1-1 1c-3 1-2 2 2 2s5 2 2 4c-2 1-1 2 2 2s5-2 3-3l-2-1c1-1 0-2-1-3-3-2-3-3 0-3h2c0-2 2-1 3 3l3 5v1c-2 0-2 1-1 1h2c1-1 1-1-1-3l-1-4v-8l-2-1c0 2-5 1-5-1h2c1 1 1 1 3-1l4-3c2 0 3 4 1 7v5c-2 1 2 4 5 4 2 0 2 0 1 1v2l1 1c-1 2 0 2 3 2l4-1 1-1c2-1 6 0 5 1l1 2c1 1 2 0 2-2-1-2 0-3 5-2l4-1h2c2 0 2 0 1 3v2l1-1c0-2 3-4 5-3l1 2c-1 1 0 2 1 2 1 1 1 0 1-2s1-3 3-3l4-2c0-1 6-2 6 0l4-1c1-1 1-1 1 1v1l4-1 2-2c0-1 2-2 2 0h2l1-2h4l3-1 1-1h1l2-1 2-1-6 1a217 217 0 0 1-34 5l-3 1-2-1c1-1 0-1-1-1l-3 1h-8c-5 0-7 0-6 1v1l-2-1-2-1c-2 1-3 0-1-2v-6c1-1 1-1-1-1s-2 0 0-2 5-2 6 0l-1 1c-2 0-2 1-2 3 1 5 2 5 14 4v-3c0-3 0-3 3-3l3 2c0 1 1 2 2 1 2 0 2 0 1 1s-1 1 1 1c1 0 2 0 1-2l1-1 1 2 2 2 2-2 2-1v-1c-2 0-3-1-1-3l7-1h14c5-2 7-3 6-5l1-1 2 1 1 1h1c-1-1 0-2 1-2h3c-1 2 4 1 9-1h5l2 1 5 2c1 1 3 0 3-1l-1-1-2-1 2-1 5 1 3 3-1 1a295 295 0 0 0-20 5h7l3-2 5-1 5-1 4-2h4c5 2 14 2 14 1h4l-2 1h-1l2 1c3 1 5-2 4-4v-2c1 0 3 1 3 3v1l2 1h1c1-2 1-1 1 1s5 2 6 1l-1-1v-1c1-1 1-1-1-3v-1h6c3-1 3-1 5 1l2 2h-9l4 2c5 2 7 3 6 1l1-1 1 1 1 1c2 0 3-3 2-4v-2h1c0-2 2-3 4-3v1l2 3 2 2h-2l-2 1h2l2 1h3c3 0 5-4 3-6l1-1 2 1v2l1 2c0 2 1 2 4 2 4 0 4 0 4-2-1-3 2-3 2 0l1 3 1 1 1-1h3l2-1 3 1 2 1c1 0 2 0 1-1l4-1 9-1c4-2 4-2 2-2l-4-1h-1c1-1 0-1-5-1-6-1-6-1 2-1h9l-5-1-5-1c-1 2-6 1-7-1 0-2-1-2-2-1h-2c-1-2 0-2 5-3 4 0 5 0 4 1l1 2 1-1h14l9-1 5-1c2 0 3 0 2 1h11-2v-1c1-1 0-2-5-1l-6-1c-1-1 0-1 1-1h10l-5-1c-6-2-8-4-1-4h15c1-1 0-1-2-1h-4l-6-1c-4 0-5 0-4-1 2-1 2-1 0-1l-4-1-2-1 5-1c5-1 7-3 2-3-4 0-4-1-1-3h4l6 1h9c3 0 4-1 1-2l-1-1 2-2c1-2 1-2 3-1l5-1h1c0 1 2 1 3-1l4-1 2-1-6 1h-12l-2-1-1 1c1 1 0 1 0 0l-4-2h-3l3-1c3-1 7 0 7 1 0 2 3 1 3-1 1-1 0-1-6-1-2 0-3-1-3-2 0-2 2-3 2-1l3 1c3 1 4 1 6-1 1-1 1-1-3-1-3 0-4 0-3-1l5-1c2 0 3-1 3-2v-1l2 1c1 1 11 0 11-2 0-1 3-2 7-2l3-1-4-1-7 1-2 1 1 1v2h-7l3-1-1-1h-4l-2-1h-7l1-1v-1h-2l-4 1-2-1-1 1c1 1 0 1-2 1l-2-1h2v-1c-1-2-2-4 0-4h4l9 1c6 0 6 0 4 1l-2 2 2-1h4l1-1c1-1 0-1-2-2-4-1-3-3 1-2l4-1 3-2 1-1-4 2h-5l-4-2h-6l-3-1h-4l-3-2-2-1c0-1 3-1 7 2h2l3-1 3-1 1-1 1-1-2 1c-2 1-9 0-8-2l-1-1c-2 0-4-2-4-3h10l2-1c2 0 2 0 0-1-1-1-1-1 2-1s3 0 1-1c-3 0-4-3-1-3s0-1-4-2l-6 1c0 1-1 1-1-1-1-1 0-1 2-1 11 0 20-2 12-2h-3l-1-1 3-1v-1c-2-1-2-2 1-4h2c1 2 5 3 5 1l5-1c6 0 6-1 1-1l-4-1-1-1v1h-1c-2-1-2-2-1-2 3-1 3-2-1-3-1-1 0-1 4-1l9 1c1 1 2 0 1-1 0-1-1-2-4-2h-6l-1-2-6-3-7-2c-3 0 0-2 5-1l4-1h3l5-1-2-1-3-1 3-1 4-1c1-1 1-1-1-1h-2l2-2 1-2-2-1h3c3 2 11 2 11 1 1-1 0-1-1-1l-8-1 1-2-1-2c-1-1-1-1-1 1 0 3-1 3-3 2v-1c2-1 3-4 1-4l-1-1c1-1 0-1-2-1h-4c-1-1 0-1 2-1 3 0 4 0 3-1l-1-1h-1c0-1 2-2 6-2l5-1h-4c-4 0-4 0-3-1 2-2 2-2 0-2l-3 1h-3v-4h2l3 2c2 0 3 0 2-2l-1-1v-2l-1-1c-2 1-2 0-3-1 0-2-1-2-2-1l-8-1c-1-1 0-1 3-1l5 1-4-2-5-1h4a686 686 0 0 1 9 0v-2l1-1-2-1h-1l4-1c6 0 7-2 1-2h-7l-8-2-5-1-3-1-2-1h3l5-1c1-1 4 0 4 2 0 1 6 2 9 1 2-1 2-1 2 1h1c1-1 7-1 7 1h5c3 0 2-1-5-2-6-1-9-3-9-4 1-1-1-1-3-1-5 0-5 0-4-3v-4l1 3c1 2 2 3 4 3l4-1h2l2-1c-1-1 0-1 1-1l2 2c1 2 1 2-2 1l-2 1 3 1c2 0 2-1 2-3l2-2c1-1-1-1-3-1h-5l4-1 4-1-5-1h-4l-3 1h-7c-5 1-11 0-8-1h6l6-1 1-1-2-1-1-1-1 1c0 1-1 2-2 1l-2-1 5-2v-1l1-1v2c0 1 5 3 6 2v-1h-3c-1-1 0-2 1-2l4 1c1 1 2 1 2-1 1-1 0-1-3-1-9 0-10 0-10-2 1-2 0-2-4-2-4-1-5-1-4-2l4-2 5-2c3-1 3-1-2-2-6-1-6-1-5 1 0 2 0 2-1 1l-3-1c-2 0-2 0-1-1v-2c-3-1 0-2 4-1l9 1c4 1 4 0 4-2l-1-2v-1c1-1 2-2 1-3v-4h-3l-3-1-3-1-10-5h-2v-1h6c0 2 2 2 5 2v-1l2-2v-1l-1-1 1-1 2-1c2-1 2-1 2 1 0 3 2 4 3 2l3-1 3 1 7 2c4 2 18 3 19 1l-7-1c-8 0-13 0-13-2 0-3 0-3-5-3l-5-1-7-3-6-1 3-2h7c3 2 4 2 4 0 1-1 0-1-1-1h-2l-3-1h-6c-4-1-3-2 1-2 2 0 2 0 0-1-4-1-3-2 1-2l5-1 4-1c3 0 3-1-1-4-4-2-9-3-9-2l1 1c2 0 2 2 1 3l-2-1h-1l-1-1c1-2 0-2-2-2l-3-1-1-1-3-1-5-1h-1c0-1 0-2-2-2-2-2-2-2 1-2l6 1 8 2 7 3h3l2 1 1 1 1 1h3l-1-1h-1l1-1 2 1h1c2-1-2-2-5-2s-4-1-2-2l5 1 8 1h4c2 0 2-1-2-2-5-2-5-2-4 0h-2c-2-2-3-4-1-3h1c1-1 0-1-1-1l-2 1-2 1v-1c1-2-2-5-4-5-1 1-1 1 0 0v-1c-1-1 0-1 1-1l2 1 1 1h2l1 2 1-1v-1c2-1 2-3 1-3h-4v-1c1-1 1-1-1-1h-3v-1l-1-2c1-1 0-1-3-2-6-1-7-1-2-1h4l1-1c1-1 0-1-2-1l-3-1 4-1c3 1 4 0 3-1l3-1 2 1 4 1 3 1 3 1 1-1c0-2-1-3-4-4-7-2-19-8-18-9v-1l-2-2 16 8 3 1-5-4-19-11-5-2c-2 0-5-1-6-3l-4-2-2-1-4-2-4-2-3-1-3-1-2-1h-3c-2 0-2 0-1-1v-1c-3 1-5 0-5-2l-2-1c-1 1-2 0-2-1l-2-1h-3c-1-1-2-1-2 1l2 3c1 0 1 1-1 3l-2 3v2l2 2c-1 1 3 1 8 1l4 1 1 1c2 0 0-2-4-4-3-1-4-2-4-4l2-3c1 0 2 1 1 3l1 3c2 1 4-1 2-2l-1-2c1-1 4 0 4 2l2 1 4 2c1 3 3 4 4 2 1-1 6 0 6 2l2 1 3 1 3 2 1 1h1c1-1 2 0 4 1l4 2 4 5-2-1-1-1 2 4c2 2 2 2 0 1l-4-2c-2-1-3-1-4 1-1 1-1 2 2 3l2 1c-1-2 3-2 6 0 1 2 1 2-1 2l-3-1h-1c0 2-4 1-5-1-1-1-3-3-5-3-1 0-2 0-1 1l4 4-2-1h-3c-2 0-3-3-1-5 1-1 1-1-2-2l-5-2-3-1 2 2c2 0 2 0-1 1-2 1-2 1 3 1 4 0 5 0 4 2h-1l-4-1c-2 1-5 0-6-3l-2-1c-2 0-10-5-8-5l2 1 2 1c1-1 2 0 2 1l2 1c2 0 2-2 1-3v-1l-2-1h-5l-1-1-1-1-6-2-5-2-4-2-5-1c-5-1-14-4-16-6-3-2-3-3 0-3h6c3 0 3 1 3 3-1 2 0 3 2 1 0-1 1-1 2 1l4 2c3 0 4-1 2-3v-2h-2l-1 1-1 1-6-5h-2l-4-2-4-1h-2l-3-2-6-1c-2 0-2 0-3 2l-1 2-1 1c0 2 0 4-3 4h-3c-1 0 3-3 4-2l-1-1h-4l-1 1c-1-1 2-5 4-5 2-1 0-2-4-3l-7-1c-2-1-3-1-4 1l-5 1-2 1-1 2-1-3-1-2-1 3c0 3 0 3-4 3-5 0-5-1-4-3 2-3 0-4-4-4-2 1-2 1-1 2v2c-2 2-5 2-5 1h-4c-1-1-5 0-5 2l-3 3c-2 1-2 1-1 3 2 1 2 2 1 3-2 2-4 0-3-4l1-3c1 0 2 0 2-2l1-2c-1 0-1-1 1-6l-1-2h-3c-1-1-12-2-13-1-1 2-4 1-5-1h-3l-2 1c-2 1-14 1-15-1 0-1-12-1-13 1-1 1-7-2-6-4V5l-1 1zm22 8v3l-3 1-1-2c1-4 4-6 4-2zm23 0v2l2 2c-1 2-1 2-3 0-1-1-1-1-1 1s-1 3-3 0l-3-1-2-1 1-1c1 1 2 0 3-1 0-2 2-3 4-3s2 0 2 2zm14 1h-2l-2 1v2l-2 2c-1 0-2-1-2-3v-3c1-1 7 0 8 1zm-82 3c1 2 0 3-2 3v-1c1-1 1-1-1-1s-2 0-2-2l1-2 2-1c2 0 2 1 2 4zm55-2h-2c-2 0-2-1-1-1 2-1 4 0 3 1zm-98 2c1 1 1 2-1 3-1 1-1 1-1-1 0-3 0-4 2-2zm179 0h-2c-2 0-2 0-1 1 2 1 2 2 1 2l-1 3c1 1 0 2-1 2v2c1 2 1 2-1 2-4 0-5-2-2-3 2-1 3-1 2-3l-1-1v-2l1-2v-1h5zm-79 3v1l-3 4-4 3c-1-2 1-6 3-6 2-1 2-1 1-2s0-2 1-2l2 2zm-487 1c1 1 0 3-1 4l-1 3-2 2h-2l-2-1-2-1 1-2 1 1 2 1c2 0 2 0 1-1v-6l-1-1c2-2 6-1 6 1zm91 0c0 2-2 3-2 1s2-3 3-3l-1 2zm467-1-4 2-3-1c0-2 1-2 4-2s4 0 3 1zm25 0v1l-1 1c1 3-1 2-3 0v-1c2 1 2 1 2-1-1-1 1-2 2 0zm-242 1c1 1 1 3-1 3l-2-2c0-2 1-2 3-1zm191 1v3h-2c-1-1-1-3 1-4s3 0 1 1zm-5 1-2 2c-2 0-2 0 1 2l2 2-3-1h-1c0 2-3 3-4 2 0-1 2-7 3-6l2-1c0-3 3-2 2 0zm16 1c0 3 0 3-3 3-3-1-3-1 0-4 2-3 3-3 3 1zm-187 0-2 2-2-2v-1c-1-1 0-1 1-1l3 2zm192-1-1 1-1 2v1c-2 0-2-2-1-3l1-1 1-1 1 1zm-462 1v2h-4c-4-1-4-3 0-3l4 1zm258 2h-4l2-1 1-1h1c2 0 2 0 0 2zm148-1 1 1 2-1 2-1h2c2 2 1 4-4 6-3 2-5 2-5 1l2-2 3-1h-4c-2 0-2-1-1-1v-2h-2c-1 1-1 1 0 0 2-3 2-3 4 0zm-375 3c0 3-2 4-4 2s-1-4 0-4l2-1 1-1 1 4zm22-1-3 1c-4 0-4-2 0-2 4-1 4-1 3 1zm8 1-2 1-1-1c1-1 0-1-1-1v-1c3-1 5 0 4 2zm-42 1h-1c-1-2 0-4 1-2v2zm469 0c1 2 0 2-1 1l-1-1v-1l-1-1c0-1 3 0 3 2zm-597-1c0 1-1 2-3 2s-2 0-1-2h4zm593 1v2c-2 0-1 2 1 2l2 1 2 1v-1h2c2 1 2 1 1-2l1-3 1 1h1c2-2 3-1 3 1l-2 2-2 2c1 2-1 2-8 1-4-1-5-1-5-5s1-5 3-2zm-494 1-5 1c-3 0-3 0-2-1 2-2 7-2 7 0zm317-1-1 2-1-2 1-1 1 1zm-405 1-3 1c-2 0-2 0-1-1h4zm149 0 1 2c1 1 0 1-3 1l-4-1 1-1c1 1 1 0 2-1h3zm407 0c1 2 1 2-1 2-1 0-2-1-1-2v-1l2 1zm10 1c-1 3-6 3-6 0l1-1h3c2-1 2-1 2 1zm-521 0c1 2 1 3-1 3l-1-1v-1l-1-1h3zm261 0-1 2c-1 3-3 2-3 0s1-3 2-3l2 1zm296 1 1 2 2-1h1c0 2-1 2-3 1-3 0-3 0-2-2l1-1v1zm-622 0-3 1-2-1 2-1 3 1zm301 1-2 3h-1c1-1 0-2-1-3-3 0-3 0 0-1 4-1 4-1 4 1zm289 0h-2v-1h3c1 0 1 1-1 1zm-581 0 1 2c1 1 1 1-1 1-2-1-3-4-1-4l1 1zm98 2c-2 1-3 0-2-2h2v2zm529-2-2 1-1-1 1-1 2 1zm-648 1-4 2c-3 0-3-2 0-2h4zm129 1h-4c-2-1 2-2 4-1 2 0 2 0 0 1zm31 1c-1 2-2 2-4 1-1-1-1-1 1-1l2-2 1-1v3zm-95-1-2 1-1-1 3-1v1zm184 0-1 2-1 1c0 3 0 3-1 2v-4c1-2 2-3 3-1zm9 0-3 1-3-1 3-1 3 1zm-148 1c0 2-2 2-3 0-1-1-1-1 1-1l2 1zm72 0-1 1h-1l-2 1h-2c-2-1 0-3 4-3 2 0 3 0 2 1zm244 0h-4l3-1c2 0 2 0 1 1zm-390 1c2 0-4 3-7 3s-4-1-3-2c0-2 1-2 5-2l5 1zm24 0v3c-1 3-5 4-5 2v-4c1-2 1-2 3-1h2zm574 0 1 1h-6c-6-1-2-2 5-1zm-314 2-3 2-3 1-2 1v2l2 2 2 2c0 2-1 2-3 2h-4l-3 1c-2 0-3 0-2-1s2-2 5-2c2 0 2-7-1-7-1 0-2-2-1-3h5l5-1h1l2 1zm12-1c2 0 3 0 2 1h-2l-3 2h-2l-2 1h-1c1-2 1-2-1-2-2 1-2 1-1-1 1-1 5-2 6-1h4zm318 0h-3l-2-1h2l3 1zm-452 2c0 2-2 4-3 4l-1-1-1-2h1c2 0 3 0 2-1l1-2 1 2zm10 0c-1 1-2 2-3 1v-2l3-1v2zm24-1-3 1c-2 0-2 0-1-1h4zm426 0c1 2 1 2-1 2-3 0-2 2 2 3s6 4 3 4-19-7-19-8l3-1h12zm-589 1-2 1-1-1 1-1 2 1zm198 2-1 2-1-4c1-1 2 0 2 2zm-67 2c-2 0-2-1-1-3l1 1v2zm-99 0c0 4-2 5-4 4l-2 1-2 1-1-2c0-2 0-2 1-1h2c0-2 1-2 3-2s2 0 1-1l-1-2c2-2 3-1 3 2zm157-1c-2 1-4 1-3-1h5l-2 1zm332 1 2-2 1-1 1 2c0 2 1 3 2 3l-1 1-2 3c0 2 0 2-2 1l-3-1c-2 0-2-4 0-4v1l1 1 1-2-2-1-1-2c0-2 0-2 1-1l2 2zm-542 0c0 2-1 2-1 1-1-2 0-3 1-3v2zm41 2-1 4-1 3c0 2-1 3-3 2-2 0-2-1-1-2v-3c-1 1-1 1-1-1s0-3 2-3l1-2c-1-1 0-1 2-1s2 1 2 3zm28-1c2 0 2 0 0 1l-2 2c0 3 0 4-2 3v-2c1-1 0-1-3-1-2 0-2 0-1-2s2-2 2-1c1 2 4 1 4-1-1-1-1-1 0 0l2 1zm-10 0-1 2-1 1-1 1 1 1v1c0 2-3 3-3 1h-2c-2 2-2 2-2 0l2-2 3-3c1-2 1-3 3-3 1 0 2 0 1 1zm33 1 1 1-3 2c-2 0-2 0-1-1v-3h1l2 1zm7 0-2 8v-1c2-2 1-5-1-5s-2 0-1-1l1-2c0-2 2-1 3 1zm417-1-1 2-1-2c1-2 2-1 2 0zm-557 1h2l-2 2-2 2 2 1 2 1h-1l-1 2v2c-1 1-5 0-5-1v-2c-3-1-2-2 0-2 2 1 2 1 2-2-1-4-1-4 1-4l2 1zm62 0-1 2-1-2 1-1 1 1zm83 0-1 2-1-1v-2l2 1zm6 0-2 2v1h-2l4-4v1zm147 1c-1 3-3 3-3 1l-3-1h-2l4-1h4v1zm23 0 1-1c-1-1 3-1 4 1 1 1 1 1-1 1l-7 1c-8 1-8 1-8-1l1-1v1l1 1 1-1c-1-2 2-3 5-2l3 1zm284-1c1 1-3 5-4 4l1-1v-1l2-3 1 1zm-37 1h-8c-1-1 0-1 3-1l5 1zm44 1c2 1 2 1 1 3-2 2-2 2-5 0s-2-6 1-4l3 1zm-330 1-3 3-1 3-1 1c-2-1-2-5 0-5h2v-3c2-1 3-1 3 1zm5 2c0 2-1 3-2 3h-4c-2 1-2 1 0 0l2-2 1-2c2-2 3-1 3 1zm-334 0c1 2-1 2-2 1h-3l-2 1c-2 0-2 0-1 1l1 1h-7l-6 2-5 2c-2 2-4 1-5-2 0-2 0-2 6-2s13-1 13-3l1-1h10zm39 1-2 2-3 1-2 1v1l-3 2c-3 1-4 2-3 3l-1 2-1-2-2-2v-2l1-2 2-1 2 1c-1 1 0 2 2 1v-3l-10-1h-3l6-1h17zm-70 4h-1c-2 0-2-1-1-4l2 4zm784-3 2 1 5 2 3 2h-3l-6-2c-2-3-3-4-1-4v1zm-61 3c1 2 1 2-1 2s-3 0-2-2c0-3 2-3 3 0zM84 58c1 2 0 2-2 3l-1-1 1-2c-1-3 0-2 2 0zm73 0-2 1-1-1 3-1v1zm623 1h-2c-2 0-2-1-1-1 1-1 3 0 3 1zm-643 0 2 1c0 2-3 3-5 2s-2-1-1-3h4zm327 0 2 2h-1l-3-1c-2 0-2 0-1-1h3zm-349 1c-3 2-7 2-7 1l4-2c4 0 4 0 3 1zm17 3c-1 1-3-1-2-3h1l1 3zm-77-2h11l5 1c2-1 6 0 4 1l-13 5v-2h-8l-5 2v-3c2-1-1-4-2-3l-1-1h9zm51 0c1 1 1 1-6 1l-5 2-5 1-4 1-5 2-3 1c1 1-1 2-3 3-4 1-4 1-4-2 1-3 5-5 9-5l2-1 6-1 16-3 2 1zm14 0c-1 1-1 1 1 1l4-1c2-1 3-1 1 2l-5 1c-2 0-3 0-3-2l2-2v1zm18 4-2 1h-6l4-2 4 1zm701 0c2 0 2 0 1 2v1l2 2c1 2 0 3-1 3l-4-1v-1l3-1c1-1 0-1-1-1-3 0-3 0-2-1v-3h2zM30 68v2h-3c-4 0-5-1-3-2v-1l1-1h6l-1 2zm93-1c1 1 1 2-1 2h-9l4-2h6zm-53 2-3 1-3 1h-1l1-2h6zm42 1-2 1-3 1h-2l2-2h5zm-89 5c2 1-2 4-5 4l-3-1 2-1c3 0 3-1 3-3s0-2 1-1l2 2zm79-2c2 2 2 2 0 2-2 1-2 1-2-1s1-3 2-1zm-16 1-2 4-1 1c0-2-3-3-4-1l1 1v7h-2v-8c-2-1-1-2 1-1l1-1c-1-1 1-2 4-2h2zm21 1v2l-2-2h2zm43 1-1 1-2-1h3zm714 0c1-1 1-1 1 1-1 2-1 3 1 3v1l-3-2h-4l-2 1 1-1v-1l1-2c1-1 2 0 2 1 1 1 1 1 3-1zM61 77c0 1-2 2-3 1v-1h3zm72 2c1 1 0 2-1 2-2 1-3 0-3-2s4-2 4 0zm710 1-4-2h2l2 2zM61 84l-1 4v3l-2-1v-2l1-1v-2l1-2c-1-2 0-3 1-3v4zm50-1c0 2-1 2-1 1-1-2 0-3 1-3v2zm762 0c-1 1-1 1 2 1 3-1 3-1 3 1 0 3 0 3-2 1l-5-2c-2 0-2 0 0-2 3-2 4-1 2 1zM71 87h-5s4-2 5-1v1zm-38 0-4 1c-3 0-3 0-2-1h6zm76 1-5 2c-1 0 2-3 4-3l1 1zm756 5-2 1c-1 0-2-1-1-3 0-2 0-2 2-1l1 3zM46 94c-1 2-1 2 1 2v1h-3l-2-2 2-1h2zm817 2-2 1-2-1 2-1 2 1zm16 1h-3l-3-1 6 1zM26 99c-1 1-6 2-7 1l3-1 3-1 1 1zm841 3c1 1 1 1-1 1l-3-1h4zm-837 2-1 1-1 1-1 1c-2 0-2 0 0-2s3-3 3-1zm42 3h2l1 1c1 1 0 1-2 1-3 0-5-1-3-2h2zm-14 1c0 2-1 2-5 2l-4-1 1-1h8zm810 2c0 2 0 2-2 3h-3l2-3c2-4 3-3 3 0zm-785 1h-2c-1 0-1-1 1-2s3 0 1 2zm-20 1-3 1-7 1-3-1 6-1a216 216 0 0 0 7 0zm810 0-2 2v-2c-1-1 0-1 1-1 2 0 2 0 1 1zm-825 5-1 1h-3l-1 1h-3c-2 0-2 0 0-2h8zm26 2-2 1-2-1 3-1c1 0 2 0 1 1zm801 7 2 1c1 1 0 1-2 1l-3-1-1-1h-1l2-1 3 1zm0 7-1 1-1-1c0-1 2-2 2 0zm-853 3-1 1-3-1 2-1 2 1zm8 2-2 1-1-1 2-1c1 0 2 0 1 1zm-2 10c2 1 2 1 0 1s-3-1-3-2c-1-1-1-1 0 0l3 1zm846 1-3 1h-3c0-2 1-2 4-2 2 0 3 0 2 1zm-824 3c1 1-7 3-19 4-11 1-8-1 4-2l12-2h3zm810 2-1 2-1-3 2 1zm-783 3-5 1c-3 0-3 0 1-1h4zm-10 1-3 1c1 1 0 1-8 3l-4 1c0 1-3 1-13-1l-5-1h13l3 1-1-1c-1-1-1-1 2-1l16-3c2 0 2 0 0 1zm-36 1-2 1-1-1 2-1c1 0 2 0 1 1zm856 1-2 2c-2 0-1-2 2-3v1zm-857 8c2 0 1 3-1 3s-2 2 0 4 2 2-1 1l-1-1-2-1v-1l1-2v-3h4zm849 1c2 0 2 0 1 1s-7 0-6-1h5zM24 193l2 2c2 1 2 1 0 1l-4-2-3-2h3l2 1zm853 19h1l-2 1-2-2h1l2 1zm1 4h-2c-4 0-5-1-2-1l4 1zm-858 2-1 1h-1l1 1 2 1h-3l-2 1c1 1 0 1-1 1-2 0-3 0 0-2v-2l-1-1h6zm48 0-3 1h-3l3-1h3zm796 7c0 1 0 2-1 1l-1-3v-1c1 0 2 1 2 3zm-810 9h1l5-1c5 0 10 2 9 3H45c0-2 0-3 3-2l2-1c0-1 3-1 4 1zm819 1-1 2c-1 0-2 1-1 2l-1 1v-5h3zm-852 5h-2c-1-2 0-3 2-2s2 1 0 2zm46 7c1 1 0 3-2 2v-2h2zm-7 1-3 1c-2 0-2 0 1 1l4 1h-3l-7-1-3-1h4l5-2h2v1zm-24 15c4 0 5 0 4 1-2 1-12 0-12-1l2-1 6 1zm808 14-4 2c-2 0-2 0 0-2h4zm6 2c-1 2-3 2-3 1l2-2 1 1zm-735 7h-3l-2-1c1-1 5 0 5 1zm596 7c0 1-2 1-2-1h1l1 1zm-68 7c0 1-2 3-3 2-3 0-3-1-3-2 1-2 6-2 6 0zm36 1c-1 2-3 2-3 1l2-1 2-1-1 1zm178 4-2 2-1-2c0-2 2-2 3 0zm-198 0h-2c-1-1-1-1 1-1s2 0 1 1zm6 0h2v1h-3v-2l1 1zm45 0-1 1-1-1c0-1 2-2 2 0zm-619 1v1l-3-1 1-1 2 1zm41 0-2 1-3-1h5zm591 1h2l1 1c0 2-4 1-4-1-1-1 0-2 1 0zm-64 5 2 1v1l-2 2c-2 0-2 0-1-1v-4c0-3 1-2 1 1zm58 1c-1 2 0 3 1 3v1l1 1 2 1 3 2 3 1-6 1c-5-1-6-1-6 1v2l-1 1h1l1 1h2c2-2 6 1 5 3 0 2-3 3-4 1l1-1-3-1c-3-1-4 0-2 1l1 3-1 1-2-2-1 1c2 2-3 1-5-1s-2-2-4-1c-3 2-3 2-3 0-1-1-1-1 1-1h7l3-1c1 0 2-1 2-3l1-3 1-2h-4c-4 0-5 1-5 3v3l-2 1-2-1c2-1 2-6 1-6h-1l5-3h1l-1-1v-1l2-2c0-1 1-2 2 0l-1 2v1l2 1 1 1h3l-1-1-1-3v-2l-1-1c1-1 0-1-2-1s-3 1-3 2l-1 1-1-2 1-2h2l4-1c4 0 4 0 4 3zm-36 0 3 1v2l-2-1h-3c-2 1-2 1-2-2l1-1 3 1zm-52 0-1 2c-1 1-1 1-1-1s1-3 2-1zm41 0-2 2v-2l2-1v1zm6 2-2 2v-1l1-2v-1c2 0 2 0 1 2zm-176 0c1 1 0 1-3 1s-3 0-1-1l3-1 1 1zm226 1c-1 0-1 1 1 2v2l-3-1c-1-1-1-2 1-3l2-1-1 1zm-639 0 1 1-3 1-3-1-1-1 2-1 4 1zm334 1-2 1v-2c0-1 2-1 2 1zm229 0c1 2 0 3-5 3h-7l6-2h3v-3l3 2zm53 2-2 1c-2 0-2 0-1-1l2-2c-1 0 0-1 0 0 1 0 2 1 1 2zm-147 1c-1 1-3 0-3-1s3-2 4-1l-1 2zm104-2 2 1-1 1c-3 1-4 1-2-2 1-1 2-2 1 0zm-172 2 1 3 1 4c0 1 3 3 3 1h5c1 1 0 1-1 1-4 0-1 1 3 1l5 1c1 0 2 0 1 1h-1l-3 1c-2 1-2 1-2-1l-3-1c-3 1-5 0-6-1l-3-2v3h-6l2-1v-2c-1-1-1-1 1-1s2-1 2-4-1-4-2-4c-1-1-1-1 1-1l2 2zm183 0c-1 3 2 3 3 0s3-3 3 0l-1 3-1 2c1 0 1 1 0 0l-1 1h-2l-1-3-1-1h-3v-2c3-2 5-2 4 0zm-171 1 1 1-1 3-2 1c-1 0-2-1-1-2l-1-4h1l3 1zm63-1 1 1 1 1 1 4 2 5h-4c-4 0-5 0-4-2l1-2v-1l-1-2h2l1-2v-3 1zm178 1 3 1 4 1c2 1 4-1 3-3h3l1 1 1 3c2 2 2 2-1 2h-3l-3-1h-3v-1l-1 1-2 1c-2 0-3 0-2-1l-2-1h-2c-1 1-8 0-8-1s4-3 8-3c1 0 2 0 1 1l1 1 1-1 1-2v2zm-112 1-2 4v-5c1-2 3-1 2 1zm-112 1 1 3-1-1-2-1-2-1c0-3 3-3 4 0zm72-1c1 2 1 2-2 3-2 1-2 1-1 3 2 1 2 1 0 1l-3-1c0-2-2-1-1 0h-1c-2-1 0-4 2-4h3l-1-1v-1l3-1 1 1zm54 0v4h-2c-2-1-2-3-1-5l3 1zm5 1-2 2v-2l3-2-1 2zm36-1 1 1 1 1 2 2v3c1 1-3 4-5 4l-2 1-1 1v-7l2-1 2-1h2l-2-2c-3-3-3-4 0-2zm81 0-2 2v-2l1-1 1 1zm10 0c1 0 2 1 1 2h-1l-1 2c1 3 0 3-2 1l-1-2 1-1v-2h3zm-331 1c1 0 4 3 4 5s-3 1-5-1c-1-1-2-3-1-4h2zm79 0v5l-1-1v-1c-2 0-2 0-1-2 0-2 2-3 2-1zm13 1c0 1 1 2 4 1 2 0 3 0 2 1l-9 1h-2l2-1 1-1v-2c0-1 2-1 2 1zm249 0c1 1 2 2 1 3-1 2-4 1-4-2-1-4 1-4 3-1zm14 1c4 0 4 1 0 1l-4 2h-2c-1-2-2-2-3-1-2 1-2 1-2-1l1-1 3-2h2c1 1 2 2 5 2zm-321 0c-2 2-3 2-2-1l3-1-1 2zm155-1h2v1l-3 1v-3l1 1zm-437 3c0 2-1 2-2 1l-2-2-2-1 3-1c2 0 3 1 3 3zm259-1c1 1-1 3-2 4-1 0-2-1-1-3 0-2 2-3 3-1zm256 0v1h-3v-2l3 1zm55 0h-4l3-1c2 0 2 0 1 1zm-580 4c0 2 0 3-1 2h-2v-1l1-2 1-2v-1l1 4zm369-2c1 0 2 0 2 2h-7c-2 0-2 0-1-2s1-2 3-1l3 1zm48 0c0 1-2 3-4 3v-1c1-1 1-1-1-2-3-1-2-2 1-1l4 1zm5-1c3 0 2 2 0 2s-3-1-3-2h3zm57 1 1 2 1 2c1 1 1 1 1-1l1-2c4-1 5-1 4 1v1l1 1h-1l-1 1c0 1-6 2-7 1h-2l-3 1v-6l-1-1 2-1c0-2 4-1 4 1zm30-1-1 1-2-1 1-1 2 1zm129 0h3l4 1-4 1-5-1-1 1h-2v-2c2-1 5-2 5 0zm-357 1-2 1h-1l1-2 2 1zm178 4 2 4c1 1 0 1-1 1-2-1-3 0-3 1l-1 1-1 1v1l-4-2c0-3 0-3-1-2l-2 1-2 2c0 2-1 2-3 2h-5c-1 1-2 0-2-2l1-3 1 1c-1 2 0 2 3 2 2 0 3 0 2-1-3 0-3-3 0-4h1l1 1 1-1c0-2 3-4 4-4l2 2c0 2 0 2 3 2 2 0 2-3 0-4l1-1 1-2c0-3 2 0 2 4zm-548-2c0 2-1 3-2 3v-3c0-3 2-2 2 0zm264-1-1 1-2-1 2-1 1 1zm76 3c-2 0-2-1-2-3h2v3zm241-3-2 1-1-1 1-1 2 1zm-497 3-4-1h-3l3-1c3-1 5 0 4 2zm356-2-2 1-1-1 1-1 2 1zm206 0h2l3 2c1 3 1 2-3 2-3 0-5 0-4-1l1-4 1 1zm-336 1c2 0 2 1 1 1l-1 1v4l-2 1c-2-1-3-4 0-4 2 0 1-2-2-3l-4-1h3l5 1zm389 1c1 1 1 1-1 1l-2-1v-1c1-2 3-1 3 1zm-371 0 3 1 4 1c2 0 0 2-2 2l-7-2-6 1h-4c-2 0-2-1-1-1 2-2 6-3 9-2h4zm-51 3v5l2-2c1-2 1-2 2 0 2 3 2 3 0 5l-2 4c-1 3-3 2-4-2-2-5-2-12 0-12l2 2zm172-1-1 2-1-1v-1h-2 4zm16 0-1 2-1-2 1-1 1 1zm22 1c2 2 2 3-1 2-2 0-3-2-3-3 0-2 1-1 4 1zm-425 0v2l-1 1c1 2-1 3-3 2h-6l2-2 1-1-4 2c-3 3-4 4-3 1 0-2 5-5 9-5l3-1 2 1zm5 1c-1 1-3 0-3-1h3v1zm176 2c0 1-1 1-4-1v-2c2-1 4 0 4 3zm97-3 1 1c0 1-2 1-2-1h1zm177 1v2l-1 1-2-1c0-2 1-3 3-3v1zm-253 2 2 1c0 2-2 2-2 1h-3c-2 0-2 0-1-3h1l3 1zm24 0 1 1v2h-3c-2-2-2-5 0-5l2 2zm212 0c1 2 1 2 2 1 1-2 2-1 1 1-1 3-6 5-8 4v-2l1-2 2-3c0-2 2-1 2 1zm-460 1c1 1 1 2-1 3s-2 1-2-2 1-4 3-1zm216-1-8 1 7-2 1 1zm43 2h1v2l-1 3c1 2 0 1-2-1s-3-4-1-6c2-1 3-1 3 2zm-299-1-2 1-1-1 1-1 2 1zm36 1-1 2-2 2v-1c0-2-1-2-4-1-3 0-3 0-2-1 1-2 5-3 8-2l1 1zm305-1h-3c-1-1-1-1 1-1l2 1zm101 2c0 1 0 2 2 2l2 1c1 1-1 3-2 2v-1c1-1 1-1-1-1l-3 1-1-4c-1-3-1-3 1-3s2 1 2 3zm13-2-2 1-1-1 3-1v1zm16 1-1 2v1l-2-1v-2l2-2c1 0 2 1 1 2zm244 0h-3l-1-1-5 2c-4 0-5-1-5-2l8-1c7 0 7 0 6 2zm-706-1-3 2-4-1c-1-1 0-1 3-1h4zm232 1 2 1c1 0 2 0 1 1l1 1 2 1c1 2 0 2-3 2-4 0-4 0-3-2l1-1-2-2v-2l1 1zm280 0 2 1 1 1h-7 2v-1c-2-2 0-3 2-1zm-412 1-1 1-1 2c-1 1-1 1-3-1s-2-2 0-2h5zm9 0h-6l3-1 3 1zm336 0c2 0 2 1 2 3 1 3 0 3-2 3-3 0-7-3-7-5 0-1 1-2 3-1h4zm-24 1-2 2-2 2-2 1-4 1 3 1 3 2h-3l-5-1c-2-2-2-2-1-3l4-2h3l3-2 1-1 1-1 1 1zm46 2h-4l3-1c1 0 2 0 1 1zm-394 3-2 1-1-2c0-1 0-2 1-1l2 2zm130-3-1 2c-1 3-2 2-2 0l2-2h1zm43 1c-1 2-3 2-3 1l2-2 1 1zm-185 2-2 1-3-1h5zm191 0-5 3 1-2 1-1 1-1 2 1zm24 2v1l1-1 1-1 1 1-2 2-4 1c-2 0-2 0-2-2h1l1-1c1-2 1-3 2-2l1 2zm-251 0c2 0 2 0 1 1h-3l-3 2h-5l-2-1c0-3 2-3 12-2zm-14 3c1 1 0 1-2 1s-2 0-1-1l3-1v1zm122 1h-3l-4-1c0-1 6-1 7 1zm6 0h-3l2-2c2 0 2 0 1 2zm350-1h-5l3-1 2 1zm5 0-1 1-2-1 1-1 2 1zm-369 3c3 0 3 0 1 1s-2 1 0 1l2 1c0 1-3 2-4 1h1v-1c-2-1-6 0-6 1l2 1c2 0 3 1 2 2h-7l-4 1h7-1l-5 3c0 2-4 0-6-2l-1-2c2 0 2-2 0-2l-1-2h2l1-1c0-1 1-2 5-1l5-1 2-1 5 1zm370 0c1 1 0 1-2 1s-2 0-1-1l3-1v1zm-392 4c2 1 2 1-1 2-2 0-3-2-1-2 1-1 0-1-1-1-2 0-3 0-2 2l-1 2-1-1v-3c0-2 5-1 7 1zm-66 2-1 2-1-2 1-1 1 1zm24 2-1 1c-5-1-8 0-8 1h-5c-1 0 7-3 11-3l3 1zm-16 2-7 4c-2-1-4 0-4 2l1 2v1l-1 1v1c-1 1-2-2-2-4l-1-2v2l-2 2h-6l-1-2c-1 1-2-1-3-3l1-1 1 1c0 2 1 2 4 1l7-2 13-3zm-37 3-4 1c-3 0-3 0-2-2h4l2 1zm-25 0v2h3l2 1c1 2-5 1-6-1l-3-1v-1l3-1c2 0 2 0 1 1zm44 0-2 1-1-1 3-1v1zm113 3c-1 2-2-1-2-3h2v3zm4-3c-1 1-1 1 1 1v1h-3c-1-2 0-3 2-3v1zm-103 4c-1 1-3 0-3-1h3v1zm13 1h-3v-2c2-1 4 0 3 2zm13 0 3-1c1 1-1 4-3 5l-2 1h-9l-2 1h-4v-1h-1l-3-1c0-2 2-4 3-4 2 2 12 2 13 0h5zm81 1c-1 2-3 2-3 0l2-2 1 2zm-129 1c1 0 1 1-1 1-1 1-2 0-2-1h3zm123 3-2 1v-2l3-1-1 2zm2 5v1c-1 1-3 0-2-1h2zm-5 1-1 1-1-1c0-1 2-2 2 0zm-141 12-2 1-3 1h-1c1-2 6-4 6-2zm-7 4c4 2 2 3-2 2l-4-2h6z"/><path d="M216 360v2l2-2h-2zM759 7l1 1-2 1c-1 1-1 1 1 1s3-1 2-2c0-2-1-2-2-1zm4 1 3 3V9l1-1h1l-3-1-2 1zm-8 3 4 1c3 0 2-1-2-1h-2zm-434 1 1 2 1-2c0-1-1-2-2 0zm42 0 2 1 3-1-3-1-2 1zm15 0 2 1 1 1 1 1c2-1 3-2 2-3h-6zm170 0c-4 0-2 2 2 2 4-1 7-3 2-3l-4 1zm-368 1 2 2c2 0 3-1 3-2h-5zm95 0-1 3c-1 2-1 5 1 3 2-1 2-6 1-7l-1 1zm21 0h4c1-1 0-1-3-1-2 0-3 0-1 1zm468 0 4 1c2 0 2 0 0-1l-5-1 1 1zm-516 1 1 2v1c-1 1-2 2-1 3s2 0 4-1v-2l-2-2c0-2-2-3-2-1zm-3 1v1l-1 1-1 1c0 2 3 1 3-1 1-3 1-3-1-2zm11 1v2h3l1-2c1-1 1-1-1-1l-3 1zm64 0 1 1 2-1-2-1-1 1zm4 1-2 3c-2 1-2 1 3 1s6 0 6-2h1c0 1 0 2 1 1 2 0 2-1 1-2h-6l-2-2c-2-1-2-1-2 1zm54 0v4l-1-1h-1l-2 1h-1c0 1 2 2 8 1 4 0 7 0 6 1h-1v1c1 2 4 1 3-1l1-4 1-3h-6l-7 1zm343-1c0 1 6 2 7 1l-3-1h-4zm-620 3h-3v1c1 1 7 0 7-1l1-1h1c0-1-5-1-6 1zm184-1v2c0 1 1 1 1-1 1-2 0-3-1-1zm81 1c1 2-1 3-2 0l-1-1-1 1v2l-1 1h8c1-1 0-4-2-4-1-1-1-1-1 1zm35 1c-1 1 1 1 3 1l5-1h-8zm12 0h3l4-1h-4l-3 1zM83 21h-2l-1 1-2 1c-1-1-4 0-4 1h9l1 2v-3l1-2h-2zm11 0-2 1-4 1c0 2 4 1 6-1l2-2-2 1zm50 1c-1 1-1 2 1 2 1 1 2 0 2-1 0-2-1-3-3-1z"/><path d="m101 24-9 3-7 2c-2 1-6 5-4 5l1-1 4-1c4 0 4 0 3 2l-2 1-9 1c-2 1-3 0-2-2v-1l-2 2-2 2h-4l-1 1-3 2-2 1-2 1-1-4c0-2 1-3 2-3l1 1c0 2 3 1 4-1l1-2v-1l-2 1-3 1c-3 0-3 0 2-2s5-2 1-2l-6 2-1-1c1-2-1-1-3 1l-3 1-3 1-2 1c-1-1-3 0-4 1s-1 1 1 1l6-2c2 0 2 0 1 1l-2 3 7-1h2l-1 1h-2l-2 1-2 1c1 2 0 2-1 2-2 0-2 0-1-1 2-2 0-2-3-1s-3 1-1 1l2 1-3 4-3 1-4 1h-1l3 1c2 0 2 0-1 1l-5 2c-2 1-3 2-1 3h1l3-1c3 0 3 0 2 1-2 1-1 2 2 1l6-2 8-2 7-1h2l3-1h1c-3-1-1-3 3-4h4c1 0 2-1 2-3v-3l1 3 2 1c0-2 0-2 2-2h1l4-1h6l3-2c2 0 3-1 3-2h-2c-3 1-3 1-3-1h-1c-2 1-3 1-3-1l5-3 6-2 6-3 3-2-2 1-5 2c-2 1-3 1-2-1l2-1 3-1 3-1c2-1 2-3 0-3l-7 2zM58 42l-1 1h-1l-1-1h-1l2-1 2 1zm-4 5c0 2 2 2 2 1h3l-1 1c-1 1-3 2-4 1l-1 1-8 2-2 1-1 1c-2 0 3-4 5-4l1-1h-7l4-1 4-2c1-2 5-1 5 0zm200-24c0 1 1 2 2 1v-2l-2 1zm-136 1v1l3 3c0 2 1 3 3 3s3-2 1-2l-1-1 3-1 3-2c1-3 1-3-5 1l-4 1 1-3c2-2-1-1-4 0zm295 1-2 2h6v-1l-1-2c0-1-1-1-3 1zm-51 0 3 1 2 1 4 1c1 0 2 0 1-1l-1-1c0-1-1-2-5-2l-4 1zm15 0-1 2v1l2-2-1-2v1zm23 0 3 1h-3l-7 1c-4 2-4 2 2 1h8l1-2c0-2-1-2-4-2h-4l4 1zm42 0 4 2c1-1 1-1-1-2h-3zm-299 2c0 3 3 4 3 1l-1-1-1-1c-1-1-1-1-1 1z"/><path d="M73 28v1l4-1c1-1 1-1-1-1l-3 1zm41 1 1 1 1 2h1v-3l-1-1-2 1zm15 0-2 1c0 1 2 1 4-1h-2zm261 2 1 1c1 1 0 2-1 2v2h2l1-1c1 0 2-1 2-3s0-2-1 0v2l-2-2-2-1zm10 1c0 3 1 4 3 1l3-1c2 0-2-2-5-2-1 0-2 0-1 2zM42 32l-2 1h-1v1c-1 1-1 1 1 1s4-2 3-4l-1 1zm788 1 6 3 5 2-5-3-3-2-2-1-1 1zM19 35l4 1 5-1-5-1-4 1zm13 3-4 3h-2l-1 1-2 1c-2 0-3-1-3-2l-2-2-2 1 1 1c2 0 1 2-2 2-2 1-2 1-1 2h6c3 0 4 0 2 1-1 1-1 1 1 1 2 1 3 1 2 2l2 1 2-1 1-1 3-2h2c0 1 4 0 6-2v-2l-2 1h-4c-2-1-4-2-5-1v-1h4l2-1v-1l1 1 1 1 1-2c-1-1 0-1 1-1s1-1-1-2l-7 2zm89 2-8 2c0-1-2-2-5-2-4 0-4 1-4 5l-2 2-1 1c0 1 0 2 2 1l2-2 1-2h4c-1-2 0-3 1-1 1 1 1 2 2 1l6-1h5l1-1h1l6-1 4-1 2-1c2 0 2 0 0-1h-6l-4 1-3 1h-1c0-3-2-3-3-1zm715-1c0 1 1 2 3 2s2 0 0-2h-3zm6 1c1 3 2 4 5 4l6 3c3 2 4 2 4 0l-2-1-3-2-3-2-5-2h-2z"/><path d="M101 42v3c1 1 1 0 1-2 0-3-1-4-1-1zm53 0v3c2 0 2-1 1-3h-1zM12 57l1 2 2-2-2-1-1 1zm893 19h4c1-1 0-1-2-1s-3 0-2 1zm38 1h4c1-1 0-1-2-1s-3 0-2 1zm-41 12-1 1h-2l4 1c3-1 3-1 1-2h-2zm-13 5c-1 1 1 1 4 1 6 0 6-1 1-1h-5zm-4 2 1 2h-6c-1 2-1 2 2 2l9 2c6 3 7 4 5 2-1-1-1-1 2-1h2v-2l-1-1c-1 1-3 0-4-1l-4-1c-3 0-5-1-4-2v-1l-2 1zM9 107l2 1 2-1-1-1-3 1zm-1 5c1 2 2 2 3 1s0-3-2-3-2 0-1 2zm892 2c1 1 6 0 6-1h-3l-3 1zm38 5h4c1-1 0-1-3-1-2 0-3 0-1 1zm-52 16v2l2-2v-1l-2 1zm14 7c-3 0-3 1-1 1 4 1 7 0 7-1l-1-1-5 1zM5 142v4l1-1 3-1h3l-7-2zm877 1h3c3-1 4-1 1-1l-4 1zm3 2-3 1v1l7 1c4 0 5 0 4 1s-1 1 1 1c3 0 3 0 2-2l-4-1c-2 0-3-1-3-2h-4zm24 0 3 1h2l-5-1zm-18 8 2 1 1-1h-3zm-5 26 3 1h2l-5-1zm8 2h4l-3-1c-2 0-2 0-1 1zm13 0h4c1-1 0-1-3-1-2 0-3 0-1 1zM1 185h3l-2-1c-2 0-2 0-1 1zm893 0h3c1-1 1-1-1-1l-2 1zm-5 3h4c1-1 0-1-2-1s-3 0-2 1zm4 4 1 5 1 1 1-1v-5l-2-1c-1-1-1 0-1 1zm17 6-4 1h5l6-1c1-1 1-1-1-1l-6 1zm-20 2 3 1c2 0 2 0 1-1h-4zm9 3h4c1-1 0-1-3-1-2 0-3 0-1 1zm-8 6 2 1 4 1 2-1c-1-1-7-2-8-1zm47-1 6 1h4l-10-1zm-50 9c-1 1-1 1 1 1 3 1 3 1 0 1s-3 0-1 1h5c1 0 2 0 1 1l1 1c1 0 3-4 2-5h-9zM7 259l2-1 2 1-1 1 2 1 5-1h2l-1 3v2h3l-1-1v-2c0-2 0-3-3-3a481 481 0 0 1-10 0zm868 0c2 1 7 0 7-1h-4c-3 0-4 0-3 1zm-853 9c0 1 1 2 4 2 4 0 3-1-1-2h-3zm20 4c0 1 1 2 5 2h5c2-1 2-2-1-2h-9zm-12 1 3 1v-1l-2-1-1 1zm850 6 1 2 3 1v-2c-1-1-1-1 1-1h3c2-1 1-1-4-1-3-1-4 0-4 1zm11-1 5 1c4 0 4 0 1-1h-6zm4 5 1 2 3-2c1-1 1-1-1-1l-3 1zm-23 8 2 1 3-1-3-1-2 1zm0 2c0 1 5 2 6 1l-3-1h-3zm17 3h4c1-1 0-1-2-1s-3 0-2 1zm-21 13 1 4 1-1c-1-2 2-3 3-1 1 1 1 1 1-2 0-1 0-2-1-1h-3c-2-1-2-1-2 1zm11 2h2c3-1 3-2 0-2l-2 2zm-21 2h4l1 1 1-2c0-1-6-1-6 1zm-9 2c0 2 1 2 3 2h3l-3-1c-2 0-2 0-1-1 2-1 2-1 0-1-2-1-2 0-2 1zm3 11c0 2 5 3 5 1l-3-2c-2 0-3 0-2 1zm-27 10h4c1-1 0-1-3-1-2 0-3 0-1 1zm-359 1c-2 0-3 2-1 3v2l1 1h3c1 0 2 1 1 2v2h-5l-5 1h-2c1-1 1-1-1-1-3-2-4 1-1 3l2 4c0 2 0 2 1 1h4c1 2 2 2 3 0 2-1 2-1 1-3h-7v-3h4c3 2 6 2 7 0l1-1h3v-1c-2 1-4-2-3-5v-3h1l2 1v2h1c0-2 3-1 3 0l4 2c2 0 2 0 1-1-1 0-2-1-1-3 0-3 0-3-4-3h-13zm20 3 1 3v-6l-1 3zm5-1c-2 1-2 2 0 3s2 1 2-2c0-2 0-2-2-1zm162 5c-2 0 1 4 3 4s2 0 1-1c-2-1-2-1 0-1 2-1 2-1 1-2h-5zm11 0h-1l-1 1 1 2 2-2-1-2v1zm-21 2c-1 1-1 1 0 0h4c-1-2-3-2-4 0zm-163 2c-1 2-1 2 1 2s3-2 1-4l-2 2zm6 1c-2 1-2 1 0 1 1 1 2 0 2-1v-1l-2 1zm-48 3c0 2 2 2 3 0l-1-1-2 1zm-122 1c-2 1-3 6-1 6 1 0 2-3 1-4l1-1 2-1h-3zm101 3h2l3-1-5 1zm91 1 1 2v-4l-1 2zm-211-1-2 8c0 4 0 4-3 4-2 0-3 1-3 2l1 3 1 1 1-2 1-2c1 0 3-2 4-5l2-5 1-1c1-2 0-3-2-3h-1zm91 3 1 3c1-1 0-6-1-6v3zm4-1c-1 3 0 5 1 3h3c1 0 0-2-2-3l-2-2v2zm7 1v1l-1 2c0 2 1 3 3 4h3l-2-1c-2 0-2 0 0-2 2-1 2-1 0-3s-4-3-3-1zm8 1v3c2 0 2-1 2-3-1-2-1-2-2 0zm241-1v1h2c1-1 0-2-2-1zm-305 2 1 1 2-1-2-1-1 1zm108 1c-3 2-3 3 0 3 2 0 2 0 1 1-2 2-2 3 1 2 1 0 2-1 1-3l-1-2-1-1h-1zm-167 2v3l-1 2v2c1 3 1 3 3 2v-3c-1-1-1-1 1-2s3-3 0-5c-1-1-1-1-1 2l1 2-1-2c-2-3-2-3-2-1zm81-1 1 2 1 2v1c2 0 2-1 2-2v-3h-4zm18 0v2l3-2c0-2-3-1-3 0zm42 0c2 1 6 2 7 0l-4-1-3 1zm35 1c-1 1-1 1 1 1v2l3-1c2-2 2-2 0-3-1-1-2 0-4 1zm116 0 1 3 1 1 2-2c2-2 2-2-1-3s-3-1-3 1zm21-1 3 1 1 1 2-2-4-1c-3 0-4 0-2 1zm43 0c-2 1-1 2 2 2 1 0 2 0 1-1l-2-1h-1zm-318 1c-2 0-2 1 0 2s3 1 3-1c0-1-1-2-3-1zm122 0 3 1 1-1-2-1-2 1zm41 0v2l2-2h-2zm-62 1 1 2c1 1 1 1 1-1s-1-3-2-1zm107 2-1 2c1 1 2 0 3-1l2-1v1l1 2c2 1 2 0 1-2 0-2-4-3-6-1zm89 0 2 1 2-1-2-1-2 1zm-262 1v2l1-1v-2l-1 1zm124 0c2 2 6 2 6 1l-3-2-3 1zm-203 4v1l1 2h1l1-2v-1h-3zm-47 1c-1 2-1 2 1 2 3 1 3 1 2-1 0-2-1-2-3-1zm106 0c0 1 1 2 2 1 2-1 1-2-1-2-1 0-2 0-1 1zm53 1h2l3-1-5 1zm-106 1v1c3 1 3 1 3-1h-3zm38 0c-1 1 0 2 3 1 2 0 2 0 1 1l1 1c2-2 1-4-2-4l-3 1zm-122 2c-1 1-1 1 1 1l2-1h-3zm112 0 2 1 2-1-1-1-3 1zm-167 1-1 1h-1c0 3 1 2 3 0l1-2-2 1zm46 0c-1 2 0 3 2 1h2c-1-2-4-2-4-1zm28 1-3 2h4l6-2h-7zm46 1 1 2v-3c-1-1-1-1-1 1zm-127 0 1 2 2-2-2-1-1 1zm158 0 2 2c2-1 3-3 0-3l-2 1zm-114 7c-2 1-2 3 0 4 1 0 1 1-2 1-2 1-2 1 1 1l4-1c-1-1 1-2 5-2l3-1c0-1-2-2-5-1-2 1-2 1-2-1h-4zm4 5 2 1 1-1-1-1-2 1zm11 1c-1 1-1 1 1 1 3 0 5-2 2-2-1-1-2 0-3 1zm-5 0-5 1c-7 1-6 2 1 2l6-1-2-2zm19 1c-2 0 0 2 3 2 2 0 2 0 1-2l-2-1-2 1zm-40 3-4 2c-3 0-5 2-3 3 1 1 0 1-1 1-3 0-3 0-2 1l2 1 2-1c2 0 2-1 2-2l1-2 1 1 1 2 1-2 1-1 1 1v2l1-2c-1-2 0-2 2-2l2 1c0 1 1 2 5 1l13-2-6-2-5 1h-8c-4 0-5 0-4-1 2-1 2-1 0-1l-2 1zm-13 5v3l2-2c1-2 1-2-1-2l-1 1zm27 1-6 2h9c3 0 4-1 2-1-1-1-1-1 1-1 2-1 2-1 0-1l-6 1zm-33 2v2h1l2-2v-1l-3 1zm59 2-5 2 3-1 6-1 2-1 1-1-7 2zm-102 3v6c-2 2 2 4 6 5 4 0 9-1 8-2 0-1 8-2 9-1h1l3-2 3-3c-1-2-2-3-4-1s-14 3-18 2c-3-1-4-2-3-3 0-2 0-2-3-2s-3 0-2 1z"/><path d="M119 411c-1 1-1 2 2 2 3 1 11 0 11-2 0-1-4-2-7-1h-3c0-2-1-1-3 1zm43-1v1h2l5-1h-7zm-57 1-3 3c-3 1-3 1-1 2 1 1 1 1-1 1-1 1-1 1 1 1 4 0 7-2 7-5 0-2-2-4-3-2zm51 2c0 3 2 5 3 3v-5l-3 2zm-66 0-4 1c-1-1-4 2-3 3l6-1 3-1c-1-1 0-1 3-2 4-1 4-1 1-1l-6 1zm59 10c-15 6-15 6-11 6l3-1 5-2 7-2 4-1c1 1 2 0 4-1l3-1c1 1 1 0 0 0-1-3-4-2-15 2z"/></svg>
