<svg xmlns="http://www.w3.org/2000/svg" viewBox="0 0 160.8 74.8"><title id="logo-title">wild</title><path fill="none" d="M0 0h160.8v74.8H0z"/><path d="M40.7.2a18.7 18.7 0 0 0-6.6.7A25 25 0 0 0 29 3a25.2 25.2 0 0 0-4 3 26.1 26.1 0 0 0-3.2 3.9 46.4 46.4 0 0 0-2.2 4.5A35.2 35.2 0 0 0 17.8 25a19.7 19.7 0 0 0 .9 6.7 19.4 19.4 0 0 0 2.8 4.5 17.6 17.6 0 0 0 6.1 4.6 38 38 0 0 0 16 4 58.7 58.7 0 0 0 8.4.4l4.3.1-1.7 1.8a48.7 48.7 0 0 1-24.4 13.2c-1.8.3-2.4.3-5 .3l-4-.1-2-.8-1.9-1.2-1-1.4-.8-1.6a28.8 28.8 0 0 1-1-6.5l-.5-3c0-.5-.3-1.1-.6-1.4l-.7-1-1.2-.1-1.3.1-1.2.6-2.8 2.6c-2 2-2.1 2.2-2 1.5l1.4-3.1 1.8-4.3a380.8 380.8 0 0 0 4.4-12l-.4-.7-.6-.5-.8.3-1 1.8A535.1 535.1 0 0 1 1.7 48 53.4 53.4 0 0 0 0 53.1l.3 1 .6.5.6.2.6-.2L5 52a100 100 0 0 1 5.3-5.2l.7-.4c.2 0 .3.3.3.7l.5 2.3.3 3 .6 3 .9 2.8c.5 1 1 1.5 1.8 2.4 1 1 1.5 1.4 2.5 1.9l2.5.9c1.2.3 1.7.3 4.7.3 2.8 0 3.5 0 5-.3a40.2 40.2 0 0 0 10.7-3.5 58.4 58.4 0 0 0 16.8-12l1.7-2.1.6-1 2-.1a100.1 100.1 0 0 0 14.8-3.2l2.6-.7-.3.6a82 82 0 0 0-3.5 9l-.3 2.2.3 1.4c0 .3.3.6.6.6l.8.3 1.8-.8a25 25 0 0 0 4.5-3l3-2.6 1.6-1.7-.2 2.3c0 2 0 2.3.3 3.2l.8 1.7 1 1.2 1.3.9 2.1.3 2.3-.3a20.6 20.6 0 0 0 6-3l2.2-1.6.6.6.9 1.1 1.4 1.5 2 1.5a17.3 17.3 0 0 0 5.2 1.4 72.8 72.8 0 0 0 8.2-.3 67.7 67.7 0 0 0 12-3.2 62 62 0 0 0 13.7-8 63 63 0 0 0 5.9-5.8 46.7 46.7 0 0 0 5.3-8.3 47.8 47.8 0 0 0 1.7-4.7 19 19 0 0 0-.3-9.1 16.8 16.8 0 0 0-1.7-3.2l-1-1.2a17.9 17.9 0 0 0-4-3.5 28.4 28.4 0 0 0-5-2.3 42.5 42.5 0 0 0-5.3-1.4 46.9 46.9 0 0 0-13 .6L128 8l-1.8 1.2-1.2 1.7-.5 1.6c0 .6 0 .8.5 1.1.4.5.6.5 1 .5l.8-.3.6-1.1a5.6 5.6 0 0 1 2.6-2.4 16 16 0 0 1 7.7-1 29 29 0 0 1 11.2 1.9l2.6 1.2c.8.3 1.8 1 2.4 1.7l2 1.8a12 12 0 0 1 2.6 6.4c.1 1 .1 1.5-.2 3.3a24.4 24.4 0 0 1-2 6.4 37.8 37.8 0 0 1-18 17.1 63.6 63.6 0 0 1-9 3.6 50 50 0 0 1-10.7 1.9l-4.1-.2-2-.3-.6-.1.6-.3c.5 0 1-.3 1.4-.7l1.2-1.2 1-1.6c.2-.6.4-1.1.4-2.5 0-1.2-.2-1.5-.5-2.2l-1-1.4-1.4-1h-2c-.7 0-1.7.4-2.1.7a8.8 8.8 0 0 0-3.2 2.7l-.8 1c-.1.2-.1.2-.4 0l-.6-.5-1 .3c-.2.3-.5.6-.5.9-.2.6-.5.8-1.7 1.7a43 43 0 0 1-5 2.8l-1.7.7H93l-1.3-.4-.9-.9a7.4 7.4 0 0 1-.6-4.2l.6-3c.3-1.4.5-1.7 1-2.5l2-2.2 2.5-3A166.9 166.9 0 0 0 115 7.5l.8-2.6c.1-1 .1-1.2-.2-1.8-.1-.3-.3-.6-.6-.6l-1-.2-2.2 2.2a73.6 73.6 0 0 0-13 17.2A129.9 129.9 0 0 0 89.4 41a60.5 60.5 0 0 1-10.2 9.5c-.8.3-1 .5-1 .2l.7-1.8a68.4 68.4 0 0 1 6.4-13.5l-.2-1-.6-.7c-.3-.2-.6-.3-1-.2l-.8.3-1 1.6-.5 1.2-2.2.9A37.3 37.3 0 0 1 66.6 41l-4 .6h-1.2l.8-1.5a40.5 40.5 0 0 0 1.7-5.2 39.6 39.6 0 0 0 .6-4.5l-.2-3.3a41.6 41.6 0 0 0-2.2-10 45.4 45.4 0 0 0-4.8-8.6A51.7 51.7 0 0 0 52.5 4a20 20 0 0 0-11.8-4zm-.8 2a25.8 25.8 0 0 1 6 .8 25.5 25.5 0 0 1 4.3 2 24.1 24.1 0 0 1 6.8 6.7 45.2 45.2 0 0 1 2.6 4.8 43.8 43.8 0 0 1 2.3 9 38.4 38.4 0 0 1 0 7 29.9 29.9 0 0 1-2.1 7l-1 2c-.2.4-.2.5-1.3.5l-1 .2a137.2 137.2 0 0 1-15-.6 138.7 138.7 0 0 1-9.5-2 37.5 37.5 0 0 1-6.5-3.2 19.1 19.1 0 0 1-3.2-3.2 13.4 13.4 0 0 1-1.7-3.3A17.4 17.4 0 0 1 20 26v-3.2l.4-3.2a29 29 0 0 1 4-9.7A24.4 24.4 0 0 1 29 5.6 29.3 29.3 0 0 1 34 3a23.5 23.5 0 0 1 5.8-.7zm73 5.2-.3.8-.8 2-1.7 2.8a187.8 187.8 0 0 1-9.4 14.6l-2 2.7a149.3 149.3 0 0 1-5 6.4l1.4-3a202 202 0 0 1 8.8-15 128.4 128.4 0 0 1 7.8-10.2zm-1 38.4 1.1.5.6.9.2 1-.2 1a4 4 0 0 1-2.2 1.6l-1.7.2-1.8-.5c-.8-.3-.8-.3-.6-.7l.3-1a6.8 6.8 0 0 1 2-2.2l1.2-.6z"/><path d="M89 6.5h-1l-.8.8c-.3.4-.3.7-.3 1.3.2.7.2 1.1.5 1.4l1.2 1.2c.8.5 1 .6 1.5.6l1-.3c.4-.3.4-.6.5-1 0-.6 0-1-.3-1.5l-1-1.4-.8-.8-.7-.3z"/></svg>
